<svg transform="scale(1)" version="1.1" id="Layer_1" xmlns="http://www.w3.org/2000/svg" xmlns:xlink="http://www.w3.org/1999/xlink" x="0px" y="0px" viewBox="0 0 500 500" xml:space="preserve" class="show_show__wrapper__graphic__5Waiy "><title>React</title><style type="text/css">
	.st0{fill:#FFFFFF;}
	.st1{fill:#231F20;}
	.st2{fill:#bed730;}
	.st3{fill:#D1D3D4;}
</style><g id="Character"><path class="st0" d="M214.8,103.6c7.6-14,19.7-23.7,37.8-17.9c1.6,0.6,3.3,1.1,5,1.3c1.7-0.1,3.5-0.3,5.2-0.6
		c8.1-0.7,14.2,7.2,18.1,14.4c7.4,13.3,20.8,31.4,18.2,47.4c-2,12.4-13.7,21-25.5,25.3c-13.3,4.9-27.6,6.2-41.5,3.9
		c-7.1-1.2-14.2-3.6-19.3-8.6c-7-7.1-8.5-18-7.9-27.9C205.5,129.4,208.6,115,214.8,103.6z"></path><path class="st1" d="M245.6,179.1c-4.6,0-9.2-0.4-13.7-1.2c-8.8-1.5-15.2-4.4-19.6-8.8c-6.1-6.1-8.8-15.7-8.1-28.4
		c0.8-13.2,4.5-27.2,10-37.4c6.4-11.9,18.3-24.7,38.5-18.2l1,0.3c1.2,0.5,2.5,0.8,3.8,0.9c1,0,2-0.1,3-0.3c0.7-0.1,1.4-0.2,2.1-0.3
		c6.7-0.6,13,4.4,18.7,14.7c1.3,2.4,2.8,4.9,4.4,7.6c7.1,12,16,26.9,13.9,40.2c-1.8,10.8-11.5,20.5-25.9,25.8
		C264.7,177.3,255.2,179.1,245.6,179.1z M215.3,103.9c-5.4,10-9.1,23.8-9.8,36.9c-0.7,12.3,1.9,21.6,7.7,27.5
		c4.2,4.2,10.4,7,18.9,8.5c13.8,2.4,28,1.1,41.2-3.8c14-5.2,23.4-14.5,25.1-24.9c2.1-12.9-6.6-27.6-13.7-39.4
		c-1.6-2.7-3.1-5.2-4.4-7.6c-5.4-9.8-11.3-14.5-17.5-14c-0.6,0.1-1.3,0.2-2,0.3c-2.5,0.6-5.1,0.4-7.5-0.7l-0.9-0.3
		C232.9,80.1,221.5,92.4,215.3,103.9L215.3,103.9z"></path><path class="st2" d="M400.6,303.7c0,0-71.4-102.7-86.2-116.2c-21.3-19.3-96.9-23.3-112.3-19.3c-27.2,7-46.1,49.4-46.1,49.4
		l45.1,13.5c0.1,34.9,3.6,71.4,3.6,71.4L400.6,303.7z"></path><path class="st0" d="M169.6,122.8c0.2-0.5-0.1-9.5-2.6-14.3s-2.1-5.7-0.1-7.3s4.2,0,7.3,3.9s3.9,9.9,3.1,14.3L169.6,122.8z"></path><path class="st1" d="M169.6,123.5c-0.2,0-0.3-0.1-0.5-0.2c-0.2-0.2-0.3-0.4-0.2-0.7c0.1-0.8-0.2-9.3-2.6-13.9
		c-2.5-4.8-2.4-6.2,0.1-8.1c2.9-2.2,5.8,0.9,8.3,4c3.3,4.2,4,10.5,3.3,14.8c0,0.2-0.2,0.4-0.4,0.5l-7.6,3.4
		C169.8,123.5,169.7,123.5,169.6,123.5z M168.5,101.3c-0.4,0-0.9,0.2-1.2,0.4c-1.6,1.2-2.1,1.6,0.3,6.4c2.1,4,2.7,10.7,2.8,13.6
		l6.3-2.8c0.6-4-0.1-9.6-3-13.3C171.1,102.4,169.6,101.3,168.5,101.3z"></path><path class="st0" d="M165.3,155c0.3-0.5,0.8-33.1,1.9-33.9s13.9-4.7,19.5-4.7s7,2.3,5,4.5c0,0,6.6,3,2.2,8.6c0,0,3.8,3.9,0,7.6
		c3,4.1,0.1,9.2-3.3,12c-3.8,3.1-9.2,3.1-9.1,8.6c0.1,19.7,1.8,39.6,0.4,59.3c-0.9,12.8-8.4,31.2-21.7,28.1s-14.2-27.6-10.3-40.6
		S165.3,155,165.3,155z"></path><path class="st1" d="M163.1,246.2c-1,0-2.1-0.1-3.1-0.4c-3.6-0.8-6.5-3.2-8.7-7c-5.1-8.9-5.1-24.5-2.1-34.5
		c3.9-12.8,15.3-49.2,15.4-49.6l0,0c0.1-0.6,0.2-4.8,0.4-9.1c0.7-22.1,1.1-24.6,1.8-25.1c1.2-0.8,14.2-4.8,19.9-4.8
		c3.4,0,5.7,0.9,6.4,2.4c0.3,0.9,0.2,1.8-0.3,2.6c1.5,0.9,2.7,2.3,3.2,3.9c0.3,1.7-0.1,3.5-1.2,4.8c1.9,2.2,1.9,5.5,0,7.8
		c2.6,4,0.1,9.3-3.7,12.5c-1.3,1-2.6,1.8-4.1,2.4c-2.7,1.3-4.8,2.3-4.8,5.6c0,6.8,0.2,13.7,0.5,20.5c0.4,12.8,0.9,26-0.1,38.9
		c-0.7,9.1-4.6,21.2-11.8,26.4C168.5,245.2,165.8,246.2,163.1,246.2z M165.9,155.2c-0.5,1.6-11.6,37-15.4,49.6
		c-2.9,9.7-3,24.8,2,33.4c2,3.4,4.6,5.6,7.8,6.3c3.3,0.8,6.9,0.1,9.6-2c6.8-5,10.6-16.7,11.2-25.4c0.9-12.9,0.5-26,0.1-38.7
		c-0.2-6.7-0.4-13.7-0.5-20.5c0-4.2,2.8-5.6,5.6-6.9c1.4-0.6,2.6-1.4,3.8-2.3c2.8-2.4,6-7.2,3.1-11c-0.2-0.3-0.2-0.7,0.1-0.9
		c3.2-3.2,0.1-6.5,0-6.7c-0.2-0.3-0.2-0.6,0-0.9c1-1.1,1.5-2.6,1.3-4.1c-0.5-2.2-3.1-3.4-3.2-3.4c-0.2-0.1-0.4-0.3-0.4-0.5
		c0-0.2,0-0.4,0.2-0.6c0.4-0.4,0.9-1.1,0.6-1.8s-1.9-1.6-5.1-1.6c-5.4,0-17.4,3.7-19,4.5c-0.6,1.8-1,16.2-1.3,24
		C166.1,153.8,166.1,154.9,165.9,155.2L165.9,155.2z"></path><path class="st1" d="M181.3,123.5c-0.4,0-0.7-0.3-0.7-0.7c0-0.3,0.2-0.6,0.5-0.7c3.4-0.8,6.9-1.5,10.4-1.9c0.4,0,0.7,0.2,0.8,0.6
		c0,0.4-0.2,0.7-0.6,0.8c-3.4,0.4-6.8,1-10.2,1.8C181.5,123.5,181.4,123.5,181.3,123.5z"></path><path class="st1" d="M182.7,132c-0.3,0-0.5-0.2-0.6-0.4c-0.1-0.4,0-0.8,0.4-0.9c3.2-1.4,11.1-1.8,11.4-1.8c0.4,0,0.7,0.3,0.7,0.6
		c0,0,0,0,0,0c0,0.4-0.3,0.7-0.7,0.7c0,0,0,0,0,0c-0.1,0-8,0.4-10.9,1.7C182.9,132,182.8,132,182.7,132z"></path><path class="st1" d="M185.5,140c-0.3,0-0.5-0.2-0.6-0.4c-0.1-0.4,0-0.8,0.4-0.9c0,0,0,0,0,0c2.8-1,5.6-1.8,8.5-2.1
		c0.4-0.1,0.7,0.2,0.8,0.6c0,0,0,0,0,0c0,0.4-0.2,0.7-0.6,0.8c-2.8,0.4-5.5,1.1-8.2,2.1C185.7,140,185.6,140,185.5,140z"></path><path class="st1" d="M199,272.6L199,272.6c-0.4,0-0.7-0.4-0.7-0.8c0,0,0,0,0,0l6.1-79.8c0-0.4,0.3-0.7,0.7-0.7c0,0,0,0,0,0
		c0.4,0,0.7,0.4,0.7,0.8c0,0,0,0,0,0l-6.1,79.7C199.7,272.3,199.4,272.6,199,272.6z"></path><path class="st1" d="M240.3,196.3c5.1,6.3,12.7,10.8,20.7,10.9c1.1,0.1,2.1-0.1,3.1-0.4c1.4-0.6,2.5-1.6,3.4-2.8
		c3.7-5,3.8-11.8,2.9-18c-0.6-4.3-1.9-8.9-5.2-11.8c-3.8-3.4-9.4-3.7-14.6-3.9c-5.3-0.1-17-1.6-19,4.7
		C229.9,180.8,236.9,192.1,240.3,196.3z"></path><path class="st1" d="M261.4,207.8H261c-7.8-0.1-15.7-4.3-21.2-11.1l0,0c-3.6-4.5-10.6-15.8-8.7-21.8s11.6-5.5,17.4-5.2l2.1,0.1
		c5.7,0.2,11.1,0.6,14.9,4c3.7,3.3,4.9,8.5,5.4,12.1c1.2,7.9,0.2,14.1-3,18.4c-0.9,1.3-2.2,2.4-3.6,3
		C263.4,207.6,262.4,207.8,261.4,207.8z M243.8,170.7c-4.9,0-10.3,0.7-11.5,4.5c-1.7,5.5,5.1,16.5,8.5,20.7l0,0
		c5.3,6.6,12.9,10.5,20.3,10.6c1,0.1,2-0.1,2.9-0.4c1.3-0.5,2.3-1.5,3.1-2.6c3-4.1,3.9-10,2.8-17.5c-0.5-3.5-1.6-8.4-5-11.4
		c-3.6-3.2-8.7-3.6-14.2-3.7l-2.2-0.1C247.1,170.8,245.4,170.7,243.8,170.7L243.8,170.7z"></path><path class="st0" d="M273,131.6c0.5-1.7,1.4-3.4,2.6-4.8c1.2-1.4,3.3-1.9,5-1.2c1.2,0.7,2,2,2.1,3.4c0.1,1.4-0.2,2.7-0.7,4
		c-0.8,2.4-2.1,4.6-3.9,6.5c-1.8,1.8-4.3,2.8-6.9,2.7"></path><path class="st1" d="M271.7,142.8h-0.6c-0.3,0-0.5-0.3-0.5-0.6c0-0.3,0.2-0.5,0.5-0.5c0,0,0,0,0.1,0c2.4,0.1,4.8-0.8,6.5-2.6
		c1.7-1.8,3-3.9,3.8-6.2c0.5-1.2,0.7-2.5,0.6-3.8c-0.1-1.2-0.7-2.3-1.8-2.9c-1.5-0.6-3.2-0.1-4.3,1.1c-1.1,1.3-2,2.9-2.5,4.6
		c-0.1,0.3-0.4,0.4-0.7,0.3c0,0,0,0,0,0c-0.3-0.1-0.4-0.4-0.3-0.7c0,0,0,0,0,0c0.5-1.8,1.5-3.5,2.7-5c1.3-1.3,3.6-2.3,5.6-1.3
		c1.4,0.8,2.3,2.2,2.4,3.8c0.1,1.5-0.2,2.9-0.7,4.3c-0.8,2.5-2.2,4.8-4.1,6.7C276.6,141.6,274.2,142.7,271.7,142.8z"></path><path class="st0" d="M263.4,155.8l2.2,21.6c0,0-1,12.3-14.5,9.8c-8.1-1.5-15-6.6-18.9-13.9c0,0,0.5-38.7,0.5-38.7
		c-0.1-1.6,3.2-7,1.6-20.7c9.4-1,17.9-5.8,23.5-13.4c0,0,6.3,7.7,8.9,10.1c2.1,1.8,4,3.8,5.5,6.1c4.2,6.3,4,16.6,3,23.7
		C274.4,146.5,270.9,156,263.4,155.8z"></path><path class="st1" d="M254.4,188.2c-1.2,0-2.3-0.1-3.5-0.3c-13.6-2.5-19.3-14.1-19.4-14.2c0-0.1-0.1-0.2-0.1-0.3
		c0,0,0.5-38.5,0.5-38.7c0-0.7,0.2-1.4,0.4-2c0.8-2.7,2.4-8.3,1.2-18.6c0-0.2,0-0.3,0.1-0.5c0.1-0.1,0.3-0.2,0.4-0.2
		c9.2-1,17.5-5.7,23-13.1c0.1-0.2,0.3-0.3,0.5-0.3c0.2,0,0.4,0.1,0.5,0.2c0.1,0.1,6.3,7.7,8.8,10c2.1,1.8,4,3.9,5.6,6.2
		c4.8,7.3,3.8,19.4,3.1,24.2c-0.8,5.8-4.2,15.4-11.7,15.8l2.1,20.9c-0.3,3.4-2,6.5-4.6,8.6C259.6,187.5,257,188.3,254.4,188.2z
		 M232.8,173.2c3.8,7,10.6,11.8,18.4,13.4c4,0.7,7.3,0.2,9.7-1.7c3.6-2.8,4.1-7.6,4.1-7.6l-2.2-21.5c0-0.2,0-0.4,0.2-0.5
		c0.1-0.1,0.3-0.2,0.5-0.2h0.1c7,0,10.2-9.2,11-14.8c0.7-4.7,1.7-16.3-2.9-23.3c-1.6-2.2-3.4-4.2-5.5-5.9c-2.2-2-6.9-7.6-8.4-9.5
		c-5.6,7.1-13.8,11.7-22.8,12.9c1.1,10.1-0.6,15.7-1.3,18.4c-0.2,0.5-0.3,1.1-0.4,1.6C233.3,134.6,233.3,134.7,232.8,173.2
		L232.8,173.2z"></path><path class="st1" d="M264.1,162.9c0.2-0.2-3.7,1.3-10.5-1.1c-7.7-2.7-8.1-7.9-8.1-7.9s6.5,4.1,17.9,1.9L264.1,162.9z"></path><path class="st1" d="M261,163.8c-2.6,0-5.2-0.5-7.6-1.4c-8-2.8-8.5-8.2-8.5-8.5c0-0.2,0.1-0.5,0.3-0.6c0.2-0.1,0.5-0.1,0.6,0
		c0.1,0,6.4,3.9,17.5,1.9c0.2,0,0.3,0,0.5,0.1c0.1,0.1,0.2,0.3,0.2,0.4l0.7,7c0.1,0.2,0,0.5-0.2,0.7c-0.1,0.1-0.3,0.2-0.5,0.1H264
		C263,163.8,262,163.8,261,163.8z M246.4,155.1c0.6,1.6,2.4,4.4,7.4,6.2c3.1,1.2,6.4,1.6,9.6,1.1l-0.6-5.8
		C254.4,158,248.8,156.1,246.4,155.1L246.4,155.1z"></path><path class="st0" d="M254,120.9c0,0,8,9.7,6.5,11.6s-6.2,1.2-6.2,1.2"></path><path class="st1" d="M256.2,134.5c-0.7,0-1.4-0.1-2.1-0.1c-0.3-0.1-0.6-0.4-0.5-0.7c0-0.3,0.4-0.6,0.7-0.5c0,0,0,0,0,0
		c1.2,0.2,4.6,0.4,5.6-1c0.6-0.8-2.4-5.9-6.5-10.9c-0.2-0.3-0.2-0.6,0.1-0.9c0,0,0,0,0,0c0.3-0.2,0.7-0.2,0.9,0.1
		c2.5,3,8.1,10.3,6.5,12.4C260,134.2,257.9,134.5,256.2,134.5z"></path><ellipse class="st1" transform="matrix(0.9912 -0.1326 0.1326 0.9912 -13.6997 36.0283)" cx="263.7" cy="120.9" rx="1.2" ry="2.2"></ellipse><ellipse class="st1" transform="matrix(0.9999 -1.169344e-02 1.169344e-02 0.9999 -1.3969 2.8649)" cx="244.3" cy="120.9" rx="1.2" ry="2.2"></ellipse><path class="st0" d="M237.1,128.9c-0.5-1.8-1.3-3.6-2.4-5.1c-1.3-1.8-3.4-2.9-5.6-2.8c-1.4,0.1-2.6,0.7-3.4,1.8
		c-0.5,0.8-0.8,1.7-0.9,2.6c-0.7,4.8,0.9,11,5.4,13.5c1.6,0.9,3.7,1.2,5.1,0.1"></path><path class="st1" d="M233,140.2c-1.1,0-2.2-0.3-3.1-0.8c-4.7-2.6-6.4-9.1-5.7-14.1c0.1-1,0.5-2,1-2.8c0.9-1.2,2.3-2,3.9-2.1
		c2.4,0,4.7,1.1,6.1,3.1c1.2,1.6,2,3.4,2.5,5.3c0.1,0.3-0.1,0.6-0.4,0.7c-0.3,0.1-0.6-0.1-0.7-0.4c-0.5-1.8-1.2-3.5-2.3-4.9
		c-1.2-1.7-3.1-2.7-5.1-2.6c-1.2,0-2.3,0.6-3,1.6c-0.4,0.7-0.7,1.5-0.8,2.3c-0.7,4.7,0.9,10.6,5.1,13c1.2,0.7,3.2,1.1,4.5,0.1
		c0.2-0.2,0.6-0.1,0.8,0.1c0.2,0.2,0.1,0.6-0.1,0.8c0,0,0,0,0,0C234.8,139.9,233.9,140.2,233,140.2z"></path><path class="st1" d="M311.9,294.5c-0.4,0-0.7-0.3-0.7-0.6c-4.8-30-14-87.1-14.4-88.8c-0.1-0.4,0.1-0.8,0.5-0.9s0.8,0.1,0.9,0.5
		c0.6,2.2,13.9,85.4,14.5,89c0.1,0.4-0.2,0.8-0.6,0.8c0,0,0,0,0,0L311.9,294.5z"></path><path class="st1" d="M257.3,147c-10.4,0-13.6-13.7-13.8-14.2c-0.1-0.3,0.1-0.7,0.5-0.7c0.3-0.1,0.7,0.1,0.7,0.5l0,0
		c0,0.1,3.2,13.3,12.6,13.3c2,0.1,3.9-0.7,5.2-2.2c3.2-3.7,2.4-10.8,2.3-10.9c0-0.3,0.2-0.7,0.5-0.7s0.7,0.2,0.7,0.5
		c0,0.3,1,7.8-2.6,11.9C261.9,146.2,259.7,147.1,257.3,147z"></path></g><g id="Bubble"><path class="st0" d="M383.8,217.7H114.2c-11.3,0-20.4,9.7-20.4,21.7v118c0,12,9.2,21.7,20.4,21.7h102.1l27.9,37.1l34.5-37.1h105.1
		c11.3,0,20.5-9.7,20.5-21.7v-118C404.2,227.4,395.1,217.7,383.8,217.7z"></path><path class="st1" d="M244.2,416.7L244.2,416.7c-0.2,0-0.4-0.1-0.5-0.3L216,379.7H114.2c-11.6,0-21.1-10-21.1-22.3v-118
		c0-12.3,9.5-22.3,21.1-22.3h269.5c11.6,0,21.1,10,21.1,22.3v118c0,12.3-9.5,22.3-21.1,22.3H279l-34.3,36.9
		C244.6,416.7,244.4,416.7,244.2,416.7z M114.2,218.3c-10.9,0-19.8,9.4-19.8,21v118c0,11.6,8.9,21,19.8,21h102.1
		c0.2,0,0.4,0.1,0.5,0.3l27.5,36.4l33.9-36.5c0.1-0.1,0.3-0.2,0.5-0.2h105.1c10.9,0,19.8-9.4,19.8-21v-118c0-11.6-8.9-21-19.8-21
		L114.2,218.3z"></path></g><g id="Like_Icon"><path class="st0" d="M325.3,309c-0.1,7.3-9.2,9.4-9.2,9.4s7.7,0.8,4.8,7.8c-1.6,4-5.2,7-9.5,7.7c0,0,6.4,3.6,1.8,10.3
		s-51.3,6.2-59.1,6.5c-5,0.2-7.1-0.2-11.7-2.6c-2.5-1.3-6.8-4.7-8.4-4.7c-4.4,0-22.1,1.2-22.1,1.2l4.2-52.3c0,0,23.5,0,27.8-3.9
		c11.4-10.1,18.6-28.1,17.6-38.8s-4-18.1,3.5-18.9s15.3,14.5,16.4,24.3s-4.1,21.7-1.8,25.6s9,4.6,19.6,3.6s20.3-2.3,24.4,2.4
		s3.9,11.7-5.4,15.6C318.4,302.3,325.4,304.1,325.3,309z"></path><path class="st1" d="M252.3,351.5c-3.8,0-6-0.5-10.1-2.7c-0.9-0.5-2-1.2-3.2-2c-1.7-1.1-4.1-2.7-4.9-2.7c-4.3,0-21.9,1.1-22.1,1.2
		c-0.2,0-0.4-0.1-0.6-0.2c-0.1-0.1-0.2-0.3-0.2-0.5l4.2-52.3c0-0.4,0.3-0.6,0.7-0.6c6.5,0,24-0.7,27.4-3.7
		c9.2-8.1,18.5-25.8,17.3-38.1c-0.2-2.1-0.5-4-0.7-5.9c-0.7-5.2-1.3-9.3,0.5-11.7c1.1-1.2,2.7-2,4.3-2c7.9-0.8,16,14.5,17.1,24.9
		c0.5,4.9-0.5,10.3-1.4,15s-1.6,8.6-0.5,10.3c2,3.4,7.9,4.4,19,3.3l1.8-0.2c10.2-1,19-1.9,23.2,2.8c2.2,2.3,3.1,5.5,2.5,8.6
		c-0.5,2.1-2,5-6.6,7.4c2.2,0.9,5.9,3,5.8,6.8c-0.1,5.3-4.6,8.1-7.5,9.2c1.3,0.5,2.3,1.3,3,2.4c0.9,1.5,0.9,3.4,0,5.7
		c-1.5,3.8-4.6,6.7-8.5,7.8c1.2,1,2,2.4,2.4,3.9c0.4,2.3-0.2,4.7-1.6,6.5c-3.7,5.4-29.7,6.4-54.5,6.7c-2.3,0-4,0-5.1,0.1
		C253.5,351.4,252.9,351.5,252.3,351.5z M234.2,342.7c1.1,0,2.9,1.1,5.6,2.9c1.1,0.7,2.2,1.4,3.1,1.9c4.5,2.4,6.4,2.7,11.3,2.5
		c1,0,2.8-0.1,5.1-0.1c13.6-0.2,49.6-0.6,53.4-6.1c2.2-2.4,2.1-6.2-0.3-8.5c-0.4-0.3-0.8-0.6-1.2-0.9c-0.3-0.1-0.4-0.4-0.3-0.7
		c0.1-0.3,0.3-0.5,0.6-0.6c4-0.7,7.4-3.5,8.9-7.3c0.7-1.8,0.8-3.3,0.1-4.4c-1.2-2-4.3-2.4-4.3-2.4c-0.4,0-0.7-0.4-0.6-0.8
		c0-0.3,0.2-0.6,0.5-0.6c0.1,0,8.5-2,8.6-8.7l0,0c0.1-4.3-6.4-6-6.4-6c-0.4-0.1-0.6-0.5-0.5-0.8c0.1-0.2,0.2-0.4,0.4-0.5
		c4.1-1.7,6.7-4.2,7.3-7.1c0.5-2.7-0.3-5.4-2.2-7.4c-3.7-4.2-12.2-3.3-22-2.4l-1.8,0.2c-11.7,1.1-18-0.1-20.3-4
		c-1.3-2.2-0.6-6.2,0.4-11.3c0.9-4.6,1.8-9.9,1.3-14.6c-1-9.4-8.7-24.4-15.6-23.6c-1.3,0-2.5,0.6-3.4,1.5c-1.5,1.9-1,5.8-0.3,10.6
		c0.2,1.8,0.5,3.8,0.8,5.9c1,10.5-5.9,28.8-17.8,39.3c-4.1,3.6-23.8,4-27.7,4l-4.1,50.9C216.3,343.6,230.3,342.7,234.2,342.7
		L234.2,342.7z"></path><path class="st1" d="M303.4,304.4c-0.4,0-0.7-0.3-0.7-0.7c0-0.4,0.3-0.7,0.7-0.7c10.6-0.2,14.7-1.4,14.8-1.4
		c0.4-0.1,0.8,0.1,0.9,0.4c0.1,0.4-0.1,0.8-0.4,0.9c0,0,0,0-0.1,0C318.4,303,314.3,304.2,303.4,304.4L303.4,304.4z"></path><path class="st1" d="M305.2,320.3h-0.8c-0.4,0-0.7-0.3-0.7-0.7c0-0.4,0.3-0.7,0.7-0.7l0,0c7.7,0.1,11.4-1.2,11.5-1.2
		c0.4-0.1,0.8,0.1,0.9,0.4c0.1,0.4-0.1,0.8-0.4,0.9C316.2,319.1,312.7,320.3,305.2,320.3z"></path><path class="st1" d="M304.4,335.5c-0.4,0-0.7-0.3-0.7-0.7c0-0.4,0.3-0.7,0.7-0.7c2.3,0.1,4.6-0.2,6.9-0.9c0.3-0.1,0.7,0,0.9,0.4
		c0,0,0,0,0,0c0.1,0.4,0,0.8-0.4,0.9C309.4,335.2,306.9,335.6,304.4,335.5z"></path><polygon class="st2" points="229.3,351.2 166.2,353.8 166.2,284.2 229.3,286.8 	"></polygon><circle class="st1" cx="209.9" cy="298.6" r="5.9"></circle><path class="st1" d="M209.9,305.1c-3.6,0-6.5-2.9-6.5-6.5c0-3.6,2.9-6.5,6.5-6.5c3.6,0,6.5,2.9,6.5,6.5l0,0
		C216.4,302.2,213.5,305.1,209.9,305.1z M209.9,293.4c-2.9,0-5.3,2.3-5.3,5.2c0,2.9,2.3,5.3,5.2,5.3c2.9,0,5.3-2.3,5.3-5.2
		c0,0,0,0,0,0C215.2,295.7,212.8,293.4,209.9,293.4z"></path></g><g id="Blings"><path class="st3" d="M346.2,140.6c1.5,6.7,6.7,11.9,13.4,13.4c-6.7,1.5-11.9,6.7-13.4,13.3c0,0-0.3-4.3-4.7-8.6s-8.6-4.7-8.6-4.7
		s4.2-0.2,8.6-4.7S346.2,140.6,346.2,140.6z"></path><path class="st3" d="M114.1,157.4c1.1,5.1,5.1,9.1,10.2,10.2c-5.1,1.1-9.1,5.1-10.2,10.2c-1.1-5.1-5.1-9.1-10.2-10.2
		c0,0,3.2-0.2,6.6-3.6S114.1,157.4,114.1,157.4z"></path><path class="st3" d="M144.6,114.8c0.9,4,4,7.1,8.1,8c-4,0.9-7.1,4-8.1,8c-0.9-4-4-7.1-8-8C140.6,121.9,143.7,118.8,144.6,114.8z"></path></g><g id="Character_hand"><path class="st0" d="M347.4,208.8c-5.3-1.7-11.5-2.8-15.9,0.5c-2.2,1.6-3.6,4.1-4.8,6.5c-2.4,4.8-4.5,9.7-6.2,14.8
		c-0.5,1.3-0.8,3.1,0.4,3.9c1.4,1,3.1-0.6,4-2c1.6-2.6,2.8-5.4,3.7-8.3c-2,4.1-3.4,8.5-4.1,13.1c-0.1,0.6-0.1,1.1,0,1.7
		c0.6,1,1.8,1.3,2.8,0.7c0.9-0.6,1.7-1.4,2.1-2.3c2.3-3.8,4.2-7.9,5.6-12.1c-1.4,4.4-2.7,8.9-2.6,13.6c-0.1,0.8,0.2,1.6,0.7,2.1
		c0.8,0.5,1.7,0.4,2.4-0.2c0.6-0.6,1.1-1.3,1.5-2.1l5.5-11.5c-1.2,4.3-1.9,8.7-2,13.2c0,0.4,0,0.7,0.2,1.1c0.6,1.2,2.5,0.4,3.2-0.7
		c1.2-1.9,2-3.9,2.4-6.1c1.5-5.6,2.8-11.4,4.5-17C352.3,213,352.8,210.6,347.4,208.8z"></path><path class="st1" d="M341.7,242.6h-0.1c-0.6,0-1.1-0.4-1.4-0.9c-0.2-0.4-0.3-0.9-0.2-1.4c0.1-2.6,0.3-5.2,0.8-7.8l-3.1,6.4
		c-0.4,0.9-0.9,1.7-1.6,2.4c-0.9,0.8-2.2,0.9-3.2,0.2c-0.7-0.7-1.1-1.6-1-2.6c0-1.7,0.1-3.3,0.4-5c-0.7,1.3-1.4,2.6-2.2,3.9
		c-0.5,1.1-1.4,2-2.4,2.6c-0.7,0.4-1.6,0.4-2.3,0.1c-0.6-0.2-1.1-0.6-1.3-1.2c-0.2-0.6-0.3-1.3-0.1-2c0.2-1,0.4-2.1,0.6-3.1
		c-0.6,0.6-1.3,1.1-2.1,1.3c-0.6,0.1-1.3,0-1.8-0.4c-0.8-0.6-1.6-1.8-0.6-4.6c1.8-5.1,3.9-10.1,6.3-14.9c1.2-2.4,2.7-5,5-6.8
		c3.8-2.8,9.2-3,16.5-0.6l0,0c6,1.9,5.4,4.9,3.9,9.6c-1.1,3.7-2.1,7.6-3,11.3c-0.5,1.9-1,3.8-1.5,5.7c-0.5,2.2-1.3,4.4-2.5,6.3
		C343.8,242,342.8,242.5,341.7,242.6z M342.5,226.4c0.1,0,0.1,0,0.2,0c0.3,0.1,0.5,0.5,0.4,0.8c-1.2,4.2-1.9,8.6-2,13
		c0,0.3,0,0.5,0.1,0.8c0.1,0.1,0.2,0.2,0.4,0.2c0.7-0.1,1.4-0.4,1.8-1c1.1-1.8,1.9-3.8,2.4-5.9c0.5-1.9,1-3.8,1.5-5.7
		c0.9-3.7,1.9-7.6,3.1-11.3c1.4-4.5,1.8-6.4-3.1-8l0,0c-6.9-2.3-12-2.1-15.4,0.4c-2.1,1.6-3.4,4-4.6,6.3c-2.4,4.8-4.5,9.7-6.2,14.8
		c-0.3,0.9-0.7,2.5,0.1,3.1c0.2,0.2,0.5,0.2,0.8,0.2c1-0.4,1.8-1.1,2.3-2c0.5-0.7,0.9-1.5,1.3-2.2c0.7-2,1.5-4.1,2.4-6
		c0.2-0.3,0.5-0.5,0.9-0.3c0.3,0.1,0.4,0.5,0.3,0.8c-0.6,2.1-1.4,4.1-2.4,6c-0.7,2.3-1.3,4.6-1.7,7c-0.1,0.4-0.1,0.9,0,1.3
		c0.1,0.2,0.3,0.4,0.6,0.5c0.4,0.1,0.9,0.1,1.3-0.1c0.8-0.5,1.5-1.2,1.9-2.1c2.3-3.8,4.1-7.8,5.5-12c0.1-0.3,0.5-0.5,0.8-0.4
		c0.3,0.1,0.5,0.5,0.4,0.8c-1.3,4.3-2.7,8.8-2.6,13.3c-0.1,0.6,0.1,1.2,0.5,1.7c0.5,0.3,1.2,0.2,1.6-0.2c0.6-0.5,1-1.2,1.3-1.9
		l5.5-11.5C342,226.6,342.3,226.4,342.5,226.4z"></path></g></svg>