<?xml version="1.0" encoding="utf-8"?>
<!-- Generator: Adobe Illustrator 27.0.0, SVG Export Plug-In . SVG Version: 6.00 Build 0)  -->
<svg version="1.1" id="Layer_1" transform="scale(1)"
	 xmlns="http://www.w3.org/2000/svg" xmlns:xlink="http://www.w3.org/1999/xlink" x="0px" y="0px" viewBox="0 0 500 289"
	 style="enable-background:new 0 0 500 289;" xml:space="preserve">
<style type="text/css">
	.st0{fill:#FFFFFF;}
	.st1{fill:#231F20;}
	.st2{fill:#D1D3D4;}
</style>
<g id="Bubble_1">
	<path class="st0" d="M235.8,82.7v90.7c0,22.3-18.1,40.4-40.4,40.4H105l-21.3,30.7l-5.8,8.4v-39.1h-8.7c-21.2,0-38.8-16.4-40.3-37.5
		c-0.1-1-0.1-1.9-0.1-2.9V82.7c0-22.3,18.1-40.4,40.3-40.4c0,0,0,0,0.1,0h126.1C217.7,42.3,235.8,60.4,235.8,82.7z"/>
	<path class="st1" d="M195.4,42.3c22.3,0,40.4,18.1,40.4,40.4l0,0v90.7c0,22.3-18.1,40.4-40.4,40.4H105l-21.3,30.7l-5.8,8.4v-39.1
		h-8.7c-21.2,0-38.8-16.4-40.3-37.5c-0.1-1-0.1-1.9-0.1-2.9V82.7c0-22.3,18.1-40.4,40.3-40.4c0,0,0,0,0.1,0L195.4,42.3 M195.4,40.9
		H69.2c-23.1,0-41.8,18.7-41.8,41.8l0,0v90.7c0,1,0,2,0.1,3c1.6,21.8,19.8,38.7,41.7,38.7h7.3v37.7c0,0.6,0.4,1.1,1,1.3
		c0.1,0,0.3,0.1,0.4,0.1c0.4,0,0.9-0.2,1.1-0.6l5.8-8.4l20.9-30.1h89.6c23.1,0,41.8-18.7,41.8-41.8V82.7
		C237.1,59.6,218.4,40.9,195.4,40.9L195.4,40.9z"/>
</g>
<g id="Bubble_2">
	<path class="st0" d="M477.1,106.3V197c0,21.3-16.6,39-37.8,40.3v39.2l-2.4-3.5L414,240l-1.8-2.6H310.5c-22.3,0-40.4-18.1-40.4-40.4
		l0,0v-90.7c0-22.3,18.1-40.4,40.4-40.4h126.1C459,65.9,477.1,84,477.1,106.3z"/>
	<path class="st1" d="M436.7,65.9c22.3,0,40.4,18.1,40.4,40.4V197c0,21.3-16.6,39-37.8,40.3v39.2l-2.4-3.5L414,240l-1.8-2.6H310.5
		c-22.3,0-40.4-18.1-40.4-40.4l0,0v-90.7c0-22.3,18.1-40.4,40.4-40.4H436.7 M436.7,64.6H310.5c-23.1,0-41.7,18.7-41.8,41.8V197
		c0,23.1,18.7,41.7,41.8,41.8h100.9l1.4,2l22.9,33l2.4,3.5c0.3,0.4,0.7,0.6,1.1,0.6c0.1,0,0.3,0,0.4-0.1c0.6-0.2,1-0.7,1-1.3v-37.9
		c21.4-2.1,37.8-20.1,37.8-41.6v-90.7C478.4,83.3,459.7,64.6,436.7,64.6z"/>
</g>
<g id="character_male">
	<path class="st0" d="M46.9,89L48,73.2c0,0,5.5-15.5,4.8-17.6s-5.5-0.5-7.9,8.6c0,0-3.9-20.6-5.8-21s-3.7,0.9-3.5,3.9
		c0.3,2.8,0.8,5.6,1.4,8.3c0,0-2.7-12.5-5.1-11.4s0,13,0,13s-2.5-11.7-4.4-10.3s1.4,12.5,1.4,12.5S23.4,45,22.2,48.9
		s4.6,17.9,4.8,23s0.9,27,0.9,27L46.9,89z"/>
	<path class="st1" d="M28.1,99.8c-0.1,0-0.2,0-0.3-0.1c-0.2-0.1-0.3-0.3-0.3-0.6c0-0.2-0.7-22-0.9-27c-0.1-2.1-1.2-5.8-2.3-9.7
		c-1.7-5.8-3.2-11.2-2.5-13.6c0.3-1,0.9-1.1,1.2-1.1l0,0c1.1,0,2.4,1.9,3.7,4.5c-0.4-2.7-0.4-5.1,0.6-5.9c0.3-0.3,0.8-0.3,1.1-0.2
		c0.7,0.3,1.4,1.3,2,2.7c-0.1-2.6,0.2-4.8,1.4-5.4c0.4-0.2,0.9-0.2,1.2,0c1,0.7,1.7,1.7,2.1,2.8c0-1.2,0.5-2.4,1.4-3.2
		c0.8-0.7,1.9-0.9,3-0.7c1.7,0.4,4,10,5.8,18.9c1.8-4.9,4.5-7.2,6.4-7.2c0.9-0.1,1.7,0.5,1.9,1.3c0.7,2.2-3.8,15.1-4.8,17.9L47.5,89
		c0,0.2-0.1,0.4-0.3,0.6L28.5,99.8C28.4,99.8,28.3,99.8,28.1,99.8z M23.1,49.1v0.1c-0.6,2,1,7.8,2.5,12.8c1.2,4,2.2,7.8,2.4,10
		c0.2,4.4,0.8,21.4,0.9,25.9l17.4-9.5l1.1-15.3c0-0.1,0-0.1,0-0.2c2.7-7.5,5.2-16,4.8-17.1c0-0.1-0.1-0.4-0.6-0.3
		c-1.4,0-4.3,2.5-6,8.9c-0.1,0.3-0.4,0.5-0.7,0.5s-0.6-0.2-0.7-0.6c-1.8-9.4-4.3-19.7-5.4-20.5c-0.6-0.1-1.2,0-1.6,0.4
		C36.5,45,36.1,46,36.3,47c0.2,2.9,1.4,8.2,1.4,8.2c0.1,0.4-0.2,0.7-0.5,0.8s-0.7-0.2-0.8-0.5c-1.2-5.6-3.2-10.8-4.1-10.9
		c-1.1,0.6-0.7,6.8,0.4,12.3c0.1,0.4-0.2,0.7-0.6,0.8c-0.4,0.1-0.7-0.2-0.8-0.5c-1.1-4.9-2.6-9.2-3.4-9.8c-0.7,0.8,0.1,6.2,1.7,11.7
		c0.1,0.4-0.1,0.7-0.4,0.8s-0.7-0.1-0.9-0.4C26.6,55,24.2,49.9,23.1,49.1L23.1,49.1z M46.9,89L46.9,89z"/>
	<path class="st0" d="M237,144.2c0,0,7.9-5.2,9.4-8.5s1.5-9.7,3.1-12.8s4.3,1.4,2.6,10.3c0,0,11.5-19,12.7-16.7s0,2.6-3,8.8
		c0,0,2.3-6.6,4.9-5.1s-3.9,9.7-3.9,9.7s5.1-7.3,6.5-4.6s-5.2,9.5-5.2,9.5s7-8.7,7.4-5.5s-8,14-25.1,27.7"/>
	<path class="st1" d="M246.4,157.6c-0.2,0-0.4-0.1-0.5-0.2c-0.2-0.3-0.2-0.6,0.1-0.8l0,0c17.5-14,25.2-24.5,24.9-27.1
		c0-0.1,0-0.1,0-0.2c-0.4,0-1.9,1.2-3.6,3c-0.8,1.1-1.7,2.1-2.7,3.1c-0.3,0.2-0.6,0.2-0.9-0.1c-0.2-0.2-0.2-0.5,0-0.7
		c0.6-0.8,1.6-2,2.7-3.1c1.7-2.2,3-4.6,2.4-5.7c-0.1-0.3-0.3-0.3-0.4-0.3c-1-0.1-2.7,1.7-4.1,3.5c-0.5,0.7-1,1.3-1.1,1.5
		c-0.2,0.3-0.6,0.3-0.8,0.1c-0.3-0.2-0.3-0.6-0.1-0.8c0.2-0.3,0.6-0.8,1.1-1.5c1.7-2.4,3.5-5.5,3.2-6.9c0-0.2-0.1-0.3-0.3-0.4
		c-0.2-0.2-0.5-0.2-0.8-0.1c-0.5,0.3-1,0.7-1.3,1.2c-0.5,1-1.1,2.1-1.9,3.7c-0.1,0.3-0.5,0.4-0.8,0.3c-0.3-0.1-0.4-0.5-0.3-0.8
		c0.5-1.4,1.2-2.7,2-3.9l0.2-0.3c1.2-2.2,1.5-2.7,0.9-3.9c-1.6,0.8-7.1,8.9-11.7,16.6c-0.2,0.3-0.5,0.4-0.7,0.2
		c-0.3-0.1-0.4-0.4-0.4-0.7c1.3-6.7-0.1-10.2-0.9-10.5c-0.2-0.1-0.4,0.3-0.6,0.6c-0.8,2-1.3,4.1-1.5,6.3s-0.8,4.4-1.5,6.5
		c-1.6,3.4-9.3,8.5-9.7,8.8c-0.3,0.2-0.6,0.1-0.8-0.2l0,0c-0.2-0.3-0.1-0.7,0.2-0.8c0.1,0,7.8-5.2,9.2-8.2c0.7-2,1.2-4,1.4-6.1
		c0.2-2.3,0.8-4.5,1.6-6.6c0.8-1.5,1.7-1.3,2.1-1.2c1.5,0.5,2.6,3.9,2.1,8.9c3.6-5.8,9.5-14.7,11.4-14.7c0.3,0,0.6,0.2,0.8,0.5
		c0.6,1,0.7,2.2,0.2,3.2c0.5-0.1,1,0,1.5,0.3s0.8,0.7,0.9,1.3c0.1,1.3-0.3,2.5-0.9,3.6c0.5-0.3,1-0.5,1.6-0.5s1.1,0.4,1.4,0.9
		c0.4,1.2,0.3,2.5-0.3,3.5c0.5-0.4,1.1-0.6,1.7-0.5c0.5,0.2,0.9,0.7,0.9,1.2c0.4,3.6-8.3,14.7-25.4,28.2
		C246.7,157.5,246.5,157.6,246.4,157.6z"/>
	<path class="st0" d="M98.2,36.8c-2.6,6.1-3.8,12.6-4.6,19.2l3.2-5.1c-2,3.1-1.1,9.4-0.9,12.9c0.3,5.3,1.3,10.6,2.9,15.6
		c0.5-2.6,1.2-5.1,2.3-7.5l4.2,10.3c0.9,2.6,2.2,5.1,3.8,7.4c5.8,7.2,18.9,7.7,27.2,6c6.9-1.5,19.1-7.2,17.7-16.4l0.6,4
		c4.7-7.7,6.3-16.8,4.5-25.6l6.1,8.2c0.8-9.6-1.3-19.3-6-27.7s-10-13-18.4-17.8c-2.4-1.4-6.2-2.1-7.4,0.5c-5.9-4-13.9-4-20.3-0.8
		s-11.2,8.9-14.2,15.3C98.6,35.9,98.4,36.3,98.2,36.8z"/>
	<path class="st1" d="M127.6,97.2c-7.4,0-15.1-2-19.2-7.1c-1.7-2.3-3-4.8-3.9-7.5l-3.5-8.8c-0.7,1.9-1.2,3.8-1.6,5.8
		c-0.1,0.4-0.4,0.6-0.8,0.6c-0.3,0-0.5-0.2-0.5-0.5c-1.6-5.1-2.6-10.4-2.9-15.8c0-0.5-0.1-1.1-0.1-1.8c-0.2-2.3-0.3-4.6-0.2-6.9
		l-0.7,1.2c-0.2,0.3-0.5,0.4-0.8,0.3c-0.3-0.1-0.5-0.4-0.4-0.7c0.7-5.5,1.8-12.7,4.7-19.4l0,0c0.2-0.5,0.4-0.9,0.6-1.4
		c3.3-7.2,8.5-12.8,14.5-15.7c6.8-3.3,14.7-3.1,20.4,0.5c0.4-0.6,1-1,1.7-1.2c2-0.7,4.6,0.2,6.2,1.1c9.1,5.1,14.1,10,18.7,18
		c4.8,8.5,6.9,18.3,6.1,28.1c0,0.3-0.2,0.5-0.5,0.6s-0.6,0-0.7-0.2l-4.4-5.9c0.9,8.1-0.9,16.3-5.2,23.2c-0.1,0.2-0.4,0.4-0.7,0.3
		c-0.1,0-0.1,0-0.2-0.1c-2.3,6.7-11.4,11.1-17.8,12.5C133.4,96.9,130.5,97.2,127.6,97.2z M101,71.3L101,71.3c0.3,0,0.5,0.2,0.6,0.4
		l4.1,10.3c0.9,2.6,2.1,5,3.7,7.2c5.8,7.1,19,7.3,26.5,5.7c7.3-1.6,18.4-7.2,17.2-15.6l0,0c-0.1-0.4,0.2-0.7,0.6-0.8
		c0.4-0.1,0.7,0.2,0.8,0.6l0,0l0.3,2c3.9-7.1,5.1-15.4,3.5-23.4c-0.1-0.4,0.2-0.7,0.6-0.8c0.3,0,0.5,0.1,0.7,0.3l5,6.7
		c0.4-8.9-1.7-17.7-6.1-25.4c-4.4-7.8-9.3-12.5-18.1-17.5c-1.5-0.8-3.6-1.5-5.1-1c-0.6,0.2-1.1,0.6-1.3,1.1
		c-0.1,0.2-0.2,0.3-0.4,0.4s-0.4,0-0.6-0.1c-5.4-3.7-13.1-4-19.6-0.8c-5.7,2.8-10.7,8.1-13.9,15c-0.2,0.4-0.4,0.9-0.6,1.3l0,0
		c-2.1,5.1-3.5,10.5-4.2,16l1.5-2.4c0.2-0.3,0.7-0.3,1-0.1c0.2,0.2,0.3,0.5,0.2,0.8l0,0c-1.6,2.5-1.2,7.2-0.9,10.7
		c0,0.6,0.1,1.2,0.1,1.8c0.2,4.4,0.9,8.7,2.1,12.9c0.4-1.7,1-3.4,1.7-5C100.5,71.5,100.7,71.3,101,71.3z M98.2,36.8L98.2,36.8z"/>
	<path class="st0" d="M168.6,213.8h-61.2c-4-42.7-9.6-112.2-3.8-120.9c1.2-1.7,2.8-3.2,4.6-4.2c0.8-0.5,1.7-0.9,2.6-1.2
		c4.4-1.8,9.9-2.6,15.5-2.7c4.5-0.1,8.9,0.2,13.3,0.8h0.1c3.8,0.5,7.5,1.3,11.1,2.5c0.5,0.2,0.9,0.4,1.4,0.6
		C157.4,91.3,165.8,181.9,168.6,213.8z"/>
	<path class="st0" d="M185,213.8h-80l-4.7,6.8l-16.5,23.9c-0.9-8.6-1.8-16.7-2.6-24.5c-2.8-27.3-4.6-49.3-5.5-66.9
		c0-0.1,0-0.3,0-0.4c-1.5-31.8,0.2-49.3,5.7-58.3c2.1-3.4,4.9-6.2,8.2-8.4c4.5-2.9,9.6-4.7,14.9-5.4c2.1-0.3,4.2-0.5,6.2-0.5
		c1.3,0,2,0,2,0s4.5-0.2,10.9-0.3h2.4c5.7,0,12.5,0.1,18.9,0.6c3.1,0.2,6.2,0.6,9,1h0.2l1.2,0.2c3.4,0.5,6.8,1.6,9.9,3.1
		c1.2,0.7,2.4,2.8,3.6,5.8c0,0.1,0.1,0.1,0.1,0.2c1.1,3.1,2,6.2,2.7,9.4c4.4,18.8,8,51.1,10.5,78c0.6,6.7,1.2,13.1,1.6,18.9
		c0.4,4.6,0.7,8.8,1,12.4C184.8,210.8,184.9,212.4,185,213.8z"/>
	<polygon class="st0" points="110.9,94.7 139.8,157 140.7,100.2 	"/>
	<path class="st1" d="M139.8,157.7c-0.3,0-0.5-0.2-0.6-0.4L110.3,95c-0.1-0.2-0.1-0.5,0.1-0.7c0.1-0.2,0.4-0.3,0.6-0.3l29.8,5.4
		c0.3,0.1,0.6,0.3,0.6,0.7l-0.9,56.9c0,0.3-0.2,0.6-0.5,0.7H139.8z M112.1,95.7l27.1,58.3l0.8-53.2L112.1,95.7z"/>
	<path class="st0" d="M139.5,82.1l1.2,18c0,0-4.8,10.5-16.5,7.1s-13.3-12.6-13.3-12.6s-0.6-34-0.6-34.8c0-1,7.8-6.8,8.9-8.2
		c3-3.9,5.3-8.4,6.6-13.1l0.1,5.1c3.3-2.6,5.9-6.1,7.4-10c1.7,3.9,5.9,6,9.5,8.3c8.8,5.7,9.9,20.5,8,30.1
		C149,81.2,139.5,82.1,139.5,82.1z"/>
	<path class="st1" d="M128.7,108.6c-1.6,0-3.2-0.2-4.7-0.6c-12-3.5-13.8-12.7-13.8-13.1c-0.1-3.6-0.6-34.2-0.6-34.9s1.2-1.9,5.4-5.4
		c1.3-1,2.5-2.1,3.7-3.3c3-3.8,5.2-8.2,6.4-12.9c0.1-0.4,0.5-0.6,0.9-0.5c0.3,0.1,0.5,0.3,0.5,0.6l0.1,3.7c2.7-2.4,4.8-5.5,6.1-8.9
		c0.1-0.4,0.6-0.5,0.9-0.4c0.2,0.1,0.3,0.2,0.4,0.4c1.4,3.1,4.5,5.1,7.6,7l1.6,1c9.4,6.1,10.1,21.8,8.3,30.8
		c-1.6,8.1-9,10.1-11.3,10.5l1.2,17.4c0,0.1,0,0.2-0.1,0.3C141.3,100.5,137.5,108.6,128.7,108.6z M125.2,42.5
		c-1.3,3.4-3.2,6.7-5.4,9.6c-1.2,1.2-2.5,2.4-3.9,3.5c-1.9,1.5-4.7,3.9-4.9,4.5c0,0.6,0.4,22.9,0.6,34.6c0,0.2,1.7,8.7,12.8,11.9
		c6.1,2,12.8-0.8,15.6-6.6l-1.2-17.9c0-0.4,0.3-0.7,0.6-0.7c0.4,0,9-1,10.7-9.5c1.7-8.7,1.1-23.6-7.7-29.4c-0.5-0.3-1-0.7-1.6-1
		c-2.8-1.8-5.7-3.6-7.4-6.3c-1.6,3.5-4,6.6-7.1,9c-0.3,0.2-0.7,0.2-1-0.1c-0.1-0.1-0.1-0.3-0.1-0.4L125.2,42.5z"/>
	<path class="st1" d="M139.8,91c-4.5,0.3-8.8-1.3-12-4.5c-5-5.3-4.4-8.2-4.4-8.2s8.2,5,16.1,3.8L139.8,91z"/>
	<path class="st1" d="M138.8,91.7c-4.3,0-8.4-1.7-11.4-4.7c-5.1-5.4-4.7-8.4-4.6-8.7c0-0.2,0.2-0.4,0.4-0.5c0.2-0.1,0.4-0.1,0.6,0
		c0.1,0,8.1,4.9,15.6,3.7c0.2,0,0.4,0,0.5,0.1s0.2,0.3,0.2,0.5l0.3,8.9c0,0.3-0.2,0.6-0.6,0.7C139.8,91.7,139.4,91.7,138.8,91.7z
		 M124.2,79.6c0.3,1.2,1.2,3.4,4.1,6.5c2.9,2.8,6.8,4.4,10.8,4.3l-0.3-7.5C132.7,83.6,126.6,80.8,124.2,79.6z"/>
	<path class="st0" d="M137.7,52.7c0,0,5.1,10.6,3.3,12.1s-5.9-0.3-5.9-0.3"/>
	<path class="st1" d="M139,66.1c-1.4-0.1-2.8-0.4-4.1-0.9c-0.4-0.1-0.6-0.5-0.5-0.8c0.1-0.4,0.5-0.6,0.8-0.5c0,0,0.1,0,0.1,0.1
		c1,0.4,4.1,1.4,5.3,0.4c0.7-0.6-0.9-6-3.5-11.3c-0.2-0.3,0-0.7,0.3-0.9s0.7,0,0.9,0.3c1.6,3.3,5.1,11.3,3.1,12.9
		C140.8,65.9,139.9,66.1,139,66.1z"/>
	<ellipse transform="matrix(0.1188 -0.9929 0.9929 0.1188 65.2349 174.651)" class="st1" cx="131" cy="50.6" rx="2.7" ry="1.2"/>
	<ellipse transform="matrix(0.1188 -0.9929 0.9929 0.1188 76.0818 189.2137)" class="st1" cx="144.6" cy="51.7" rx="2.7" ry="1.2"/>
	<path class="st0" d="M119.8,55.4c-1-1.8-2.3-3.5-3.8-4.9c-1.9-1.6-4.8-1.6-6.7,0.1c-1.1,1-1.9,2.2-2.3,3.7
		c-1.8,6.2,1.8,10.4,7.2,12.6"/>
	<path class="st1" d="M114.2,67.5c-0.1,0-0.2,0-0.3-0.1c-6.5-2.6-9.3-7.5-7.6-13.4c0.4-1.6,1.3-3,2.5-4c2.2-1.9,5.4-1.9,7.6,0
		c1.6,1.4,3,3.1,4,5.1c0.2,0.3,0,0.7-0.3,0.9s-0.7,0-0.9-0.3l0,0c-0.9-1.8-2.2-3.3-3.7-4.6c-1.7-1.4-4.2-1.4-5.8,0.1
		c-1,0.9-1.7,2-2.1,3.4c-2.1,7.3,4,10.6,6.8,11.7c0.3,0.1,0.5,0.5,0.4,0.9C114.7,67.4,114.4,67.5,114.2,67.5z"/>
	<path class="st1" d="M137.1,75.7c-3.8,0-4.9-4.3-5-6.5c0-0.2,0.1-0.4,0.2-0.5c0.1-0.1,0.3-0.2,0.5-0.1l9.8,1.5
		c0.4,0.1,0.6,0.4,0.5,0.8V71C142.7,72.6,140.8,75.7,137.1,75.7z M133.5,70c0.2,1.5,0.9,4.4,3.6,4.4c2-0.1,3.8-1.3,4.5-3.2L133.5,70
		z"/>
	<path class="st0" d="M168.8,90.3c0,0,29.1,61.1,34.1,62.3c8.7,2.1,40.1-15.6,40.1-15.6l10.4,18.3c0,0-32.2,41.3-55.1,35.4
		c-17-4.4-34.3-43.2-34.3-43.2L168.8,90.3z"/>
	<path class="st0" d="M89.5,86c0,0-1.7-6.5-38.6,45.8c0-32.3,1.4-47.8,1.4-47.8l-26.8,3.6c0,0-11.6,90.9,10.5,94s47.3-40,47.3-40
		L89.5,86z"/>
	<path class="st1" d="M34.2,79.1c-0.4,0-0.7-0.3-0.7-0.7l0,0c0-8.4,10.7-14.5,11.2-14.7c0.3-0.2,0.7-0.1,0.9,0.3
		c0.2,0.3,0.1,0.7-0.3,0.9l0,0c-0.1,0.1-10.5,6-10.5,13.6C34.9,78.7,34.6,79,34.2,79.1L34.2,79.1z"/>
	<path class="st1" d="M184.7,209.9c-0.4,0-0.7-0.3-0.7-0.6c-2.4-38.5-13-108.4-13.1-109.1c-0.1-0.4,0.2-0.7,0.6-0.8l0,0
		c0.4-0.1,0.7,0.2,0.8,0.6c0.1,0.7,10.6,70.7,13.1,109.3C185.4,209.5,185.1,209.8,184.7,209.9L184.7,209.9z"/>
	<path class="st1" d="M56,175.1c-0.2,0-0.4-0.1-0.5-0.2c-0.3-0.3-0.3-0.7,0-1l0,0c0.2-0.2,21.1-21.4,35.1-41.4
		c0.2-0.3,0.6-0.4,0.9-0.2c0,0,0,0,0.1,0c0.3,0.2,0.4,0.7,0.2,1l0,0c-14.1,20.1-35,41.4-35.2,41.6C56.4,175,56.2,175.1,56,175.1z"/>
	<path class="st1" d="M252.1,142.8c-0.1,0-0.2,0-0.2-0.1c-0.3-0.1-0.4-0.5-0.3-0.8l0,0c1.7-4,0-8.5,0-8.5c-0.1-0.3,0-0.7,0.3-0.8
		s0.7,0,0.8,0.3c0.1,0.2,1.9,5,0,9.4C252.6,142.6,252.4,142.8,252.1,142.8z"/>
	<path class="st1" d="M111.5,156.6L111.5,156.6c-0.3,0-5.4-0.7-9.4-7.3s-2.5-20.3-2.4-20.9c0-0.3,0.3-0.6,0.7-0.6l0,0l19.3,0.4
		c0.3,0,0.6,0.2,0.7,0.6c0.1,0.5,2,12.3,0,17.9s-8.2,9.8-8.4,10C111.8,156.6,111.7,156.6,111.5,156.6z M101,129.1
		c-0.2,2.8-1,14,2.3,19.4s7.1,6.4,8.1,6.6c1.1-0.8,6-4.5,7.7-9.1s0.4-14.2,0.1-16.6L101,129.1z"/>
</g>
<g id="character_female">
	<path class="st0" d="M412.5,67.7c0,0,9.1-19.3,23.6-5.6c11.9,11.2-6.3,38.5,6.2,42.8c0,0-11.6-1.9-14.7-11.4s-2.2-12.2-2.2-12.2
		s-6,3.6-11.7,0.5S412.5,67.7,412.5,67.7z"/>
	<path class="st1" d="M442.4,105.5h-0.1c-0.5-0.1-12-2.1-15.1-11.8c-2.1-6.3-2.4-9.8-2.4-11.4c-2,0.9-6.7,2.5-11.3,0
		c-6-3.4-1.8-14.4-1.6-14.9l0,0c0.2-0.4,4.4-9.2,11.9-10.7c4.1-0.8,8.4,0.8,12.6,4.8c6.3,5.9,4.6,16,3,24.8
		c-1.5,8.5-2.7,15.9,3,17.9c0.3,0.1,0.5,0.5,0.4,0.8C442.9,105.4,442.7,105.5,442.4,105.5L442.4,105.5z M425.5,80.7
		c0.1,0,0.3,0,0.4,0.1c0.2,0.2,0.3,0.4,0.2,0.7c0,0-0.7,2.9,2.2,11.9c1.9,5.7,7.1,8.6,10.7,9.9c-2.9-3.6-1.8-10.2-0.6-17
		c1.5-8.6,3.1-18.3-2.7-23.8c-4-3.7-7.9-5.2-11.6-4.5c-6.8,1.3-10.8,9.5-11,10s-4,10.6,1,13.3c5.3,2.9,11-0.4,11.1-0.5
		C425.3,80.7,425.4,80.7,425.5,80.7z"/>
	<path class="st1" d="M424,79.1c-0.2,1.6-1.4,2.8-2.9,3.2c-2.1,0.5-4.9-0.7-6.7-2.3c-1.6-1.5-2.9-3.4-3.7-5.5
		c-1.5-3.4-6.5-16.1,2.5-12.4C421.1,65.4,425.3,73.8,424,79.1z"/>
	<path class="st1" d="M420.1,83c-2.3-0.1-4.4-1-6.1-2.6s-3-3.5-3.8-5.7c-1.1-2.4-4.4-10.4-1.9-13c1-1.1,2.8-1.1,5.1-0.1
		c8,3.3,12.5,12,11.1,17.6l0,0c-0.3,1.8-1.6,3.2-3.3,3.6C420.9,83,420.5,83,420.1,83z M410.5,62.1c-0.5,0-1,0.1-1.3,0.5
		c-1.5,1.6,0,7.2,2.1,11.8c0.8,2,2,3.8,3.5,5.3c1.6,1.4,4.2,2.6,6.2,2.2c1.3-0.4,2.3-1.5,2.5-2.8l0,0c1.2-5.1-3-13.2-10.4-16.2
		C412.2,62.4,411.4,62.2,410.5,62.1z"/>
	<path class="st0" d="M377.5,64.4c0,0-9.1-19.3-23.6-5.6c-12,11.2,6.3,38.5-6.2,42.8c0,0,11.6-1.9,14.7-11.4s2.2-12.3,2.2-12.3
		s6,3.6,11.7,0.5S377.5,64.4,377.5,64.4z"/>
	<path class="st1" d="M347.7,102.2c-0.3,0-0.6-0.3-0.6-0.6s0.2-0.5,0.4-0.6c5.7-2,4.4-9.3,3-17.9c-1.5-8.9-3.2-19,3-24.9
		c4.3-4,8.5-5.6,12.6-4.8c7.5,1.4,11.8,10.3,11.9,10.7l0,0c0.2,0.5,4.5,11.5-1.6,14.9c-4.5,2.5-9.2,0.9-11.3,0
		c0,1.6-0.3,5.1-2.4,11.4C359.7,100.1,348.2,102.1,347.7,102.2L347.7,102.2z M364.1,54.5c-3.2,0-6.5,1.6-9.8,4.7
		c-5.8,5.4-4.1,15.2-2.7,23.8c1.2,6.9,2.3,13.4-0.6,17c3.5-1.3,8.8-4.2,10.7-9.9c3-9,2.2-11.9,2.2-11.9c-0.1-0.3,0.1-0.7,0.4-0.8
		c0.2-0.1,0.4,0,0.5,0.1c0,0,5.8,3.4,11.1,0.5c5-2.8,1.2-12.8,1-13.3s-4.3-8.7-11.1-10C365.3,54.5,364.7,54.5,364.1,54.5L364.1,54.5
		z"/>
	<path class="st1" d="M366,75.9c0.2,1.6,1.4,2.8,2.9,3.2c2.1,0.5,4.9-0.7,6.7-2.3c1.6-1.5,2.9-3.4,3.7-5.5
		c1.5-3.4,6.5-16.1-2.5-12.4C368.9,62.2,364.8,70.6,366,75.9z"/>
	<path class="st1" d="M369.9,79.8c-0.4,0-0.8,0-1.1-0.1c-1.7-0.4-3.1-1.9-3.3-3.7l0,0c-1.3-5.6,3.1-14.3,11.1-17.6
		c2.4-1,4.1-0.9,5.1,0.1c2.5,2.6-0.8,10.6-1.9,13c-0.9,2.1-2.2,4.1-3.8,5.7C374.3,78.7,372.2,79.6,369.9,79.8z M379.6,58.9
		c-0.9,0.1-1.7,0.3-2.5,0.6c-7.5,3.1-11.6,11.1-10.4,16.2l0,0c0.2,1.3,1.1,2.4,2.5,2.8c2,0.4,4.6-0.8,6.2-2.2
		c1.5-1.5,2.7-3.3,3.5-5.3c2.1-4.6,3.6-10.2,2.1-11.7C380.5,59,380,58.8,379.6,58.9z"/>
	<path class="st0" d="M382.1,57.3c-7.3,3.7-13.6,8.6-14.3,19.4c-0.7,11.3-1.3,25.1,8,32.2c9.3,6.9,21.8,8,32.1,2.7
		c10.2-5.6,16.4-16.4,16.1-28C423.2,59.9,399.1,48.7,382.1,57.3z"/>
	<path class="st1" d="M394,115.6c-6.7,0.1-13.3-2.1-18.6-6.1c-9.8-7.5-8.9-22.1-8.2-32.8c0.7-11.4,7.8-16.4,14.6-19.9
		c9-4.4,19.6-3.9,28.1,1.3c9,5.3,14.3,14.6,14.7,25.5c0.3,11.8-6.1,22.9-16.5,28.6C403.8,114.4,398.9,115.6,394,115.6z M382,57.3
		l0.3,0.5c-6.9,3.5-13.3,8.2-14,18.9c-0.6,10.4-1.5,24.6,7.7,31.7c9.1,6.8,21.3,7.8,31.5,2.6c10-5.5,16.1-16.1,15.8-27.4
		c-0.3-10.5-5.5-19.4-14.1-24.5c-8.2-5-18.4-5.4-27-1.2L382,57.3z"/>
	<path class="st0" d="M309.1,128.7c-0.5-7.3-2.1-14.4-5-21.1c-0.4-1-1.4-2.2-2.4-1.7c0.6,3.1,1.1,6.2,1.7,9.2
		c-5.7-3.8-10.6-8.6-14.5-14.2c-0.3-0.6-0.8-1.1-1.4-1.4c-0.6-0.3-1.4-0.1-1.7,0.5c-0.1,0.5,0,1.1,0.3,1.6c1.7,3,3.6,5.9,5.8,8.5
		c-2.8-4.2-5.8-8.5-10.2-10.9c0.5,4.8,2.3,9.4,5.2,13.3l-7.1-7.9c-0.6-0.7-1.7-1.5-2.5-0.9s-0.2,1.8,0.3,2.6l4.9,7.3
		c-2.5-2.2-5.1-4.3-7.8-6.2c0.5,4.5,3.9,8.1,7.5,10.7s7.7,4.7,10.7,8.1c1.8,2.2,3.3,4.6,4.6,7.1"/>
	<path class="st1" d="M297.6,134c-0.2,0-0.4-0.1-0.5-0.3c-1.2-2.5-2.7-4.8-4.5-7c-2.2-2.2-4.6-4.2-7.3-5.8c-1.1-0.7-2.2-1.5-3.3-2.2
		c-4.8-3.4-7.4-7.2-7.8-11.1c0-0.2,0.1-0.5,0.3-0.6c0.2-0.1,0.5-0.1,0.7,0c1.5,1.1,3.1,2.3,4.5,3.5l-2.5-3.8c-1-1.4-1-2.7-0.1-3.4
		s2.1-0.3,3.3,0.9l2.9,3.3c-1.2-2.6-1.9-5.4-2.2-8.2c0-0.2,0.1-0.4,0.3-0.6c0.2-0.1,0.4-0.1,0.6,0c1.1,0.6,2.2,1.4,3.2,2.2
		c-0.1-0.4-0.1-0.7,0.1-1.1c0.2-0.4,0.5-0.7,0.9-0.9c0.5-0.2,1.1-0.2,1.6,0.1c0.7,0.4,1.2,0.9,1.6,1.6c3.6,5.1,8.1,9.6,13.2,13.2
		c-0.5-2.6-1-5.2-1.4-7.8c0-0.3,0.1-0.5,0.3-0.6c0.4-0.2,0.9-0.3,1.3-0.1c0.9,0.4,1.5,1.2,1.9,2.1c2.9,6.8,4.6,13.9,5,21.3
		c0,0.3-0.2,0.6-0.6,0.6l0,0c-0.3,0-0.6-0.2-0.6-0.6c-0.4-7.2-2.1-14.2-4.9-20.9c-0.2-0.6-0.6-1-1.1-1.4c0.5,2.9,1,5.7,1.6,8.6
		c0.1,0.3-0.2,0.6-0.5,0.7c-0.2,0-0.3,0-0.4-0.1c-5.8-3.8-10.8-8.7-14.8-14.3c-0.3-0.5-0.7-0.9-1.2-1.2c-0.2-0.1-0.5-0.1-0.7,0
		c-0.1,0-0.2,0.1-0.2,0.2c-0.1,0.2,0.1,0.7,0.3,1c0.5,1,1.1,1.9,1.7,2.8c1.5,1.8,2.9,3.8,4.1,5.6c0.2,0.3,0.1,0.7-0.1,0.9
		c-0.3,0.2-0.7,0.1-0.9-0.1c-1.5-1.8-2.9-3.7-4.1-5.6c-1.4-1.7-3.1-3.3-4.9-4.5c0.6,4.3,2.4,8.3,5,11.8c0.2,0.3,0.2,0.6-0.1,0.8
		c-0.3,0.2-0.6,0.2-0.8-0.1l-7.1-8c-0.5-0.5-1.2-1.1-1.6-0.8s0,1.1,0.4,1.7l4.9,7.3c0.2,0.3,0.1,0.6-0.1,0.8s-0.6,0.2-0.8,0
		c-2.1-1.8-4.3-3.6-6.5-5.3c0.8,3.1,3.2,6,7,8.8c1.1,0.8,2.2,1.5,3.3,2.2c5.4,2.9,9.7,7.6,12.2,13.2c0.2,0.3,0.1,0.7-0.2,0.8l0,0
		C297.8,133.9,297.7,134,297.6,134z"/>
	<path class="st0" d="M355.3,128c-4.8,4.5-15.6,21.5-25.4,39.2l-20.3-42.6l-16.5,4.9c0,0,14.9,78.8,29.7,82s34.8-31.9,34.8-31.9
		l22.5-61.9C380.1,117.8,362.5,121.3,355.3,128z"/>
	<path class="st0" d="M411.9,218.9c0.8,8.9,1.5,16.5,2,21.1l-1.8-2.6h-54c-1.4-12.2-3.5-33.7-4.1-52c-0.3-10.6-0.1-20,1.1-26.1
		c2.9-14.5,13.9-25,20.9-30.2c2.1-1.6,3.9-2.8,4.9-3.4l0.8-0.5l0,0l0,0c0.7-0.8,1.5-1.5,2.4-2.2c7.1-5.4,15.8-2.3,21.8,0.2l0.8,0.3
		c1.1,0.5,2.1,0.9,3,1.3c0.4,0.2,0.8,0.3,1.1,0.4c5.2,1.7,5.4,6.5,0,23.6c-2.3,7.2-2,25.2-0.9,43.6
		C410.5,201.5,411.2,210.8,411.9,218.9z"/>
	<path class="st0" d="M382.5,122.6c-0.2,0.9-0.4,1.8-0.7,2.6l0,0c-0.3,0.8-0.6,1.7-1,2.7c-0.2,0.4-0.3,0.8-0.5,1.1
		c-3,13.8-5.8,45.3-6.6,56.2c-0.2,3.5-0.8,9.2-1.5,16.8c-0.1,1.5-0.3,3-0.4,4.6c0,0.1,0,0.1,0,0.2c-0.2,1.7-0.3,3.4-0.5,5.2
		c0,0.1,0,0.2,0,0.3c-0.1,1.3-0.2,2.6-0.3,4l0,0c-0.1,1.2-0.2,2.3-0.3,3.5c-0.5,5.4-0.9,11.3-1.3,17.5h-24.8c1-10.1,2.1-20.5,3-30.3
		c0.5-4.9,1-9.6,1.4-14.2c2.2-22.2,4-40.1,5-45.2c0.4-2,0.9-3.9,1.4-5.7l0,0c3.8-13.1,10.4-19.1,16.1-21.9l0,0
		c0.4-0.2,0.9-0.4,1.3-0.6c2.3-0.9,4.7-1.5,7.1-1.6h0.2c0.6,0,1.2,0,1.5,0h0.1c0.2,0,0.4,0,0.7,0.1c0.2,0.5,0.4,1.1,0.3,1.7
		C382.8,120.7,382.7,121.6,382.5,122.6z"/>
	<path class="st0" d="M382.3,111.3l-1.6,16.8c0,0,0.9,9.5,11.3,7.6c6.3-1.2,11.6-5.2,14.6-10.9l1.4-29.2c0.1-1.2-1.5-5.1-0.3-15.8
		c-12.4-1.3-21.4-11.5-21.4-11.5s-4.8,6-6.9,7.9c-1.6,1.4-3.1,3-4.3,4.7c-2,3.1-2.3,7.1-2.5,10.7c-0.3,4.3-0.3,8.5,0.1,12.8
		C373.8,112.5,382.3,111.3,382.3,111.3z"/>
	<path class="st1" d="M389.3,136.6c-2,0.1-4-0.5-5.6-1.7c-2-1.7-3.3-4.1-3.6-6.7l1.5-16.2c-2.3,0.1-4.5-0.5-6.4-1.8
		c-1.7-1.4-2.8-3.4-3-5.7c-0.4-4.3-0.5-8.6-0.1-12.9c0.2-3.4,0.5-7.8,2.6-11c1.2-1.8,2.7-3.4,4.4-4.8c2-1.8,6.8-7.8,6.8-7.8
		c0.2-0.3,0.6-0.3,0.9-0.1c0,0,0,0,0.1,0.1s9,10.1,21,11.3c0.2,0,0.3,0.1,0.4,0.2c0.1,0.1,0.1,0.3,0.1,0.4
		c-0.9,8.1-0.2,12.3,0.1,14.2c0.1,0.5,0.2,1,0.2,1.5l0,0c0,0,0,0.5-1.4,29.2c0,0.1,0,0.2,0,0.2c-3.1,5.8-8.6,9.9-15.1,11.2
		C391.3,136.5,390.3,136.6,389.3,136.6z M381.3,128.2c0.3,2.2,1.5,4.3,3.2,5.7c1.9,1.4,4.4,1.8,7.5,1.2c6-1.2,11.2-5,14.1-10.4
		c0.1-2.1,1.4-28.9,1.4-29.1c0-0.4-0.1-0.8-0.1-1.2c-0.7-4.6-0.8-9.3-0.2-14c-10.7-1.4-18.6-9-20.7-11.1c-1.2,1.5-4.8,5.9-6.5,7.4
		c-1.6,1.4-3,2.9-4.2,4.6c-1.9,3-2.2,6.9-2.4,10.4c-0.3,4.2-0.3,8.5,0.1,12.7c0.1,1.9,1,3.6,2.5,4.8c2.6,2,6.2,1.5,6.2,1.5
		c0.2,0,0.4,0,0.5,0.2c0.1,0.1,0.2,0.3,0.2,0.5L381.3,128.2L381.3,128.2z"/>
	<path class="st1" d="M381.6,119.6c0,0,6.8,0.9,11.6-3.3s4.5-8.8,4.5-8.8s-7.8,4.3-15.5,3.8L381.6,119.6z"/>
	<path class="st1" d="M383.3,120.2c-0.6,0-1.2,0-1.7-0.1c-0.3,0-0.5-0.3-0.5-0.6l0.6-8.3c0-0.3,0.3-0.6,0.6-0.5l0,0
		c7.4,0.5,15.1-3.7,15.2-3.7c0.2-0.1,0.4-0.1,0.6,0s0.3,0.3,0.3,0.5s0.2,5-4.7,9.3C390.7,119.1,387,120.3,383.3,120.2z M382.3,119
		c1.7,0.1,6.8,0.1,10.6-3.2c2.3-1.9,3.8-4.5,4.3-7.4c-2.2,1.1-8.2,3.6-14.3,3.4L382.3,119z"/>
	<path class="st0" d="M390.3,87.7c0,0-6.1,7.6-5,9.1s4.8,0.9,4.8,0.9"/>
	<path class="st1" d="M388.6,98.4c-1.3,0-2.9-0.2-3.7-1.3c-1.3-1.7,3-7.4,5-9.8c0.2-0.2,0.6-0.3,0.8-0.1c0.2,0.2,0.3,0.6,0.1,0.8
		c-3,3.8-5.4,7.8-4.9,8.4c0.8,1,3.4,0.8,4.3,0.7c0.3,0,0.6,0.2,0.6,0.5s-0.2,0.6-0.4,0.6C389.8,98.4,389.2,98.4,388.6,98.4z"/>
	<ellipse transform="matrix(0.1265 -0.992 0.992 0.1265 246.741 450.8729)" class="st1" cx="379.4" cy="85.3" rx="1.8" ry="0.9"/>
	<ellipse transform="matrix(0.1265 -0.992 0.992 0.1265 260.2282 466.1859)" class="st1" cx="394.8" cy="85.3" rx="1.8" ry="0.9"/>
	<path class="st0" d="M385.4,101.6l4.4-0.7c0,0,0.3,6.4-2.1,6.7S385.4,101.6,385.4,101.6z"/>
	<path class="st1" d="M387.5,108.1c-0.5,0-0.9-0.2-1.2-0.5c-1.5-1.4-1.5-5.6-1.4-6.1c0-0.3,0.2-0.5,0.5-0.6l4.4-0.7
		c0.2,0,0.3,0,0.5,0.1c0.1,0.1,0.2,0.3,0.2,0.4c0,0.7,0.3,6.9-2.6,7.3L387.5,108.1z M386,102.1c0,1.6,0.3,4,1,4.7
		c0.1,0.1,0.3,0.2,0.5,0.2c1.3-0.2,1.7-3.4,1.6-5.4L386,102.1z"/>
	<path class="st0" d="M403.2,86.5c1.4-2.9,5.2-3.6,8-2.8c1.9,0.5,3.3,2.1,3.6,4c0.1,1.2,0,2.4-0.3,3.5c-0.5,2.1-1.4,4.1-2.6,5.9
		c-0.6,0.9-1.4,1.7-2.3,2.2c-1.2,0.6-2.7,0.4-3.7-0.6"/>
	<path class="st1" d="M408.2,100.3c-1,0-2-0.4-2.7-1.1c-0.3-0.2-0.3-0.6-0.1-0.8c0.2-0.3,0.6-0.3,0.9-0.1c0.8,0.8,2,1,3.1,0.5
		c0.8-0.5,1.6-1.2,2.1-2.1c1.2-1.7,2.1-3.7,2.5-5.7c0.3-1.1,0.4-2.2,0.3-3.3c-0.2-1.7-1.5-3.1-3.2-3.5c-2.6-0.8-6.1-0.1-7.3,2.5
		c-0.1,0.3-0.5,0.4-0.8,0.3l0,0c-0.3-0.1-0.4-0.5-0.3-0.8c1.5-3.1,5.6-4,8.8-3.1c2.1,0.5,3.7,2.3,4,4.5c0.1,1.2,0.1,2.5-0.3,3.7
		c-0.5,2.2-1.4,4.3-2.7,6.1c-0.6,1-1.5,1.9-2.5,2.4C409.4,100.2,408.8,100.3,408.2,100.3z"/>
	<path class="st0" d="M436.8,273l-20.6-29.7l-2.3-3.3l-1.8-2.6h-23.9c0.8-6.5,1.6-13,2.5-19.5c0.5-3.5,1-7,1.5-10.5
		c0.4-3,0.9-5.9,1.3-8.8c0.2-1.2,0.4-2.5,0.5-3.7c4.5-29.7,9.1-55.9,11.2-67.8c0.1-0.8,0.3-1.4,0.4-2.1s0.2-1.3,0.3-1.9
		c0.4-1.9,0.6-2.9,0.6-2.9l0.4,0.1c3.8,0.9,7.5,2,11.2,3.3c5.6,2,11.2,4.7,12.2,7.9c3.5,11,2.9,57.9,3.6,85.8
		c0.1,6.5,0.3,12,0.7,15.7c0.2,2.6,0.6,5.5,1,10.3C436.1,249.2,436.6,258.1,436.8,273z"/>
	<path class="st0" d="M402.2,201.4c-5.1-0.9-9.8-3.2-14.5-5.3c-1.9-0.8-3.9-1.5-5.9-2.2c-2.3-0.7-4.6-2.1-7.1-2.2
		c-1.5,0-1.1,2.1-0.6,3c0.6,0.7,1.3,1.3,2.1,1.8c1.5,1,4.5,2.8,5.1,4.6c-1.9,0.5-3.9,0.3-5.9,0.5c-2.1,0.2-4.2,0.5-6.3,1
		s-4.1,0.9-6.1,1.4c-1.7,0.5-3.7,0.6-5.3,1.4c-0.4,0.2-0.8,0.5-0.9,1c-0.1,1.6,3.5,1.4,4.4,1.3l16.4-1.8c-5.7,0.5-11.4,1.6-17,3.1
		c-0.5,0.1-1,0.4-1.4,0.8c-1.4,2.1,4.5,2.2,5.1,2.2c3,0.1,6,0,9.1-0.2L366,213c-1.6,0.3-3.3,0.5-4.9,1c-0.9,0.2-1.7,0.6-2.4,1.2
		c-0.1,0.1-0.2,0.2-0.2,0.3c0,0.2,0.2,0.3,0.3,0.4c1.4,0.6,2.9,0.8,4.4,0.8c3.1,0.1,6.1-0.1,9.2-0.6l-9.1,1c-0.8,0-1.6,0.3-2.2,0.8
		c-0.1,0.5,0.1,1.1,0.5,1.4c0.5,0.3,1,0.4,1.5,0.5c3.4,0.4,6.7,0,10.1,0c3.7,0,7.3-0.2,10.9-0.7c7.2-0.9,14.2-3,20.7-6.2"/>
	<path class="st1" d="M366.9,220.5c-1.2,0-2.4-0.1-3.6-0.2c-0.6,0-1.3-0.2-1.8-0.6c-0.7-0.5-1-1.3-0.8-2.1c0-0.1,0.1-0.1,0.1-0.2
		c0.1-0.1,0.2-0.2,0.4-0.3c-0.8-0.1-1.6-0.3-2.4-0.7c-0.4-0.1-0.7-0.5-0.7-0.9c0-0.3,0.1-0.6,0.3-0.8c0.8-0.7,1.7-1.2,2.7-1.3
		c1.2-0.3,2.5-0.5,3.7-0.8h-0.3c-3.3-0.1-5.2-0.6-5.8-1.6c-0.3-0.5-0.2-1.1,0.1-1.5c0.4-0.5,1-0.9,1.7-1l0.9-0.2l0,0
		c-0.6,0.1-3.5,0.3-4.6-0.8c-0.3-0.3-0.5-0.7-0.5-1.2c0.1-0.7,0.6-1.2,1.2-1.5c1.1-0.5,2.3-0.8,3.5-1c0.6-0.1,1.2-0.3,1.8-0.4
		c2-0.6,4.1-1.1,6.1-1.5s4.2-0.7,6.3-1c0.8-0.1,1.5-0.1,2.3-0.1c0.9,0,1.9-0.1,2.8-0.2c-1.1-1.3-2.4-2.4-3.9-3.2l-0.9-0.6
		c-0.8-0.5-1.5-1.1-2.1-1.8c-0.6-0.9-0.8-2.1-0.4-3.1c0.3-0.5,0.9-0.9,1.5-0.8c1.7,0.1,3.4,0.6,5,1.4c0.8,0.3,1.5,0.6,2.2,0.9
		c2,0.6,4,1.4,5.9,2.2c0.9,0.4,1.8,0.8,2.6,1.1c3.8,1.6,7.7,3.4,11.8,4.1c0.3,0.1,0.6,0.4,0.5,0.7c-0.1,0.3-0.4,0.5-0.7,0.5
		c-4.2-0.7-8.2-2.5-12-4.2l-2.6-1.1c-1.9-0.8-3.8-1.5-5.8-2.1c-0.8-0.2-1.6-0.6-2.4-0.9c-1.4-0.7-3-1.1-4.6-1.3
		c-0.3,0-0.3,0.1-0.4,0.2c-0.2,0.6-0.1,1.3,0.3,1.8c0.5,0.6,1.1,1.1,1.8,1.5l0.9,0.6c1.7,1.2,4.1,2.8,4.6,4.5
		c0.1,0.3-0.1,0.6-0.4,0.7l0,0c-1.3,0.3-2.5,0.4-3.8,0.4c-0.7,0-1.5,0-2.1,0.1c-2.1,0.2-4.2,0.5-6.2,1s-4,0.9-6,1.4
		c-0.6,0.2-1.3,0.3-1.9,0.5c-1.1,0.2-2.2,0.5-3.3,0.9c-0.4,0.2-0.5,0.4-0.5,0.4c0,0.1,0,0.2,0.1,0.2c0.5,0.5,2.2,0.6,3.6,0.4
		l16.3-1.6h0.1c0.3,0,0.6,0.2,0.7,0.5c0,0.3-0.2,0.6-0.5,0.7l0,0c-5.7,0.5-11.3,1.6-16.9,3c-0.4,0.1-0.7,0.2-1,0.5
		c-0.1,0.1-0.1,0.2-0.1,0.3c0.2,0.4,1.8,0.9,4.7,1s6,0,9-0.2c0.3,0,0.6,0.2,0.6,0.5l0,0c0,0.3-0.2,0.6-0.5,0.7l-7.4,1.2
		c-1.6,0.3-3.3,0.5-4.9,1c-0.7,0.1-1.3,0.4-1.9,0.8c1.3,0.4,2.6,0.7,3.9,0.6c1.4,0,2.9,0,4.3-0.1l4.8-0.5c0.3,0,0.6,0.2,0.7,0.5
		c0,0.3-0.2,0.6-0.5,0.7c-1.6,0.2-3.2,0.4-4.9,0.5l-4.3,0.5c-0.6,0-1.2,0.2-1.7,0.5c0,0.2,0.1,0.5,0.4,0.6c0.4,0.2,0.8,0.3,1.3,0.4
		c2.2,0.2,4.4,0.3,6.6,0.1c1.1,0,2.2-0.1,3.4-0.1h0.2c3.5,0,7.1-0.2,10.6-0.7c7.1-0.9,14-3,20.4-6.1c0.3-0.2,0.6,0,0.8,0.2l0,0
		c0.2,0.3,0,0.7-0.3,0.8l0,0c-6.5,3.2-13.6,5.3-20.8,6.2c-3.6,0.5-7.3,0.7-11,0.7c-1.1,0-2.2,0-3.3,0.1S368,220.5,366.9,220.5z"/>
	<path class="st0" d="M430.3,131.4c0,0,42.8,77.8,27.4,83c-6.3,2.1-62.5,5.4-62.5,5.4l-6-24.3l42.1-6.5L430.3,131.4z"/>
	<path class="st1" d="M379.4,95.2c-0.3,0-0.6,0-0.9,0c-5.4-0.5-9.5-5.3-9-10.7s5.3-9.5,10.7-9c5.4,0.5,9.5,5.3,9,10.7
		c-0.2,2.6-1.5,5-3.5,6.7C384,94.4,381.8,95.2,379.4,95.2z M379.4,76.6c-4.8,0-8.7,3.9-8.7,8.7s3.9,8.7,8.7,8.7
		c4.5,0,8.3-3.4,8.7-7.9l0,0c0.4-4.8-3.1-9-7.9-9.4C379.9,76.6,379.7,76.6,379.4,76.6L379.4,76.6z"/>
	<path class="st1" d="M398.7,95.3c-0.3,0-0.6,0-0.9,0c-5.4-0.6-9.4-5.5-8.8-10.9c0.6-5.3,5.2-9.2,10.5-8.8c5.4,0.5,9.5,5.3,9,10.7
		l0,0l0,0C408.1,91.4,403.8,95.3,398.7,95.3L398.7,95.3z M398.7,76.7c-4.8,0-8.7,3.8-8.8,8.6c0,4.8,3.8,8.7,8.6,8.8
		c2.1,0,4.1-0.7,5.7-2.1c1.8-1.5,2.9-3.6,3.1-5.9l0,0c0.4-4.8-3.1-9-7.9-9.4C399.2,76.7,398.9,76.7,398.7,76.7L398.7,76.7z"/>
	<path class="st1" d="M389.3,196.3c-0.3,0-0.6-0.2-0.6-0.6c0-0.3,0.2-0.6,0.6-0.6l41.5-6.4l-10-43.1c-0.1-0.3,0.1-0.6,0.4-0.7l0,0
		c0.3-0.1,0.6,0.1,0.7,0.4l0,0L432,189c0,0.2,0,0.3-0.1,0.5c-0.1,0.1-0.2,0.2-0.4,0.3L389.3,196.3L389.3,196.3z"/>
	<path class="st1" d="M347.5,207.7L347.5,207.7c-0.4,0-0.6-0.3-0.6-0.7c0.1-0.6,7.8-64.2,7.8-65.1l0.6,0.1l0.1-0.6
		c0.5,0.1,0.5,0.1-0.7,10.9l-6.6,54.9C348.1,207.4,347.8,207.7,347.5,207.7z"/>
	<path class="st1" d="M338,182.5c-0.2,0-0.4-0.1-0.5-0.3l-25.2-50.5c-0.1-0.3,0-0.7,0.3-0.8s0.6,0,0.8,0.3l25.2,50.5
		c0.2,0.3,0,0.7-0.3,0.8l0,0C338.2,182.5,338.1,182.5,338,182.5z"/>
	<path class="st1" d="M425.5,81.9c-0.3,0-0.6-0.2-0.7-0.5c0-0.3,0.2-0.6,0.5-0.6c0,0,2.1-0.6,6-4.4c0.2-0.2,0.6-0.2,0.9,0
		c0.2,0.2,0.2,0.6,0,0.8l0,0c-4.1,4.1-6.4,4.7-6.5,4.7C425.7,81.9,425.6,81.9,425.5,81.9z"/>
</g>
<g id="Text_bubble_2">
	<path class="st0" d="M277.6,228.5l6.5-17.8l-15.5,14.4c-6.7-1.9-13.6-2.8-20.6-2.8c-26,0-47,12.5-47,28s21.1,28,47,28
		s47-12.5,47-28C295,241.5,288.2,233.6,277.6,228.5z"/>
	<path class="st2" d="M248,278.9c-26.3,0-47.7-12.8-47.7-28.6s21.4-28.6,47.7-28.6c6.9,0,13.8,0.9,20.4,2.7l15.2-14.1
		c0.3-0.2,0.7-0.2,0.9,0c0.2,0.2,0.2,0.4,0.1,0.7l-6.3,17.2c11,5.5,17.3,13.5,17.3,22.1C295.7,266,274.3,278.9,248,278.9z
		 M248,222.9c-25.6,0-46.4,12.2-46.4,27.3s20.8,27.3,46.4,27.3s46.4-12.2,46.4-27.3c0-8.2-6.2-15.9-17.1-21.1
		c-0.3-0.1-0.5-0.5-0.3-0.8l5.5-15.2L269,225.6c-0.2,0.2-0.4,0.2-0.6,0.1C261.7,223.8,254.9,222.9,248,222.9z"/>
	<path class="st2" d="M279.2,240.6h-62.4c-0.4,0-0.6-0.4-0.6-0.7c0-0.3,0.3-0.5,0.6-0.6h62.4c0.4,0,0.6,0.4,0.6,0.7
		C279.7,240.4,279.5,240.6,279.2,240.6z"/>
	<path class="st2" d="M279.2,251.3h-62.4c-0.4,0-0.7-0.3-0.7-0.7s0.3-0.7,0.7-0.7h62.4c0.4,0,0.7,0.3,0.7,0.7
		S279.5,251.3,279.2,251.3z"/>
	<path class="st2" d="M260.2,262h-43.5c-0.4,0-0.7-0.3-0.7-0.7s0.3-0.7,0.7-0.7h43.5c0.4,0,0.7,0.3,0.7,0.7S260.6,262,260.2,262z"/>
</g>
<g id="Text_bubble_1">
	<path class="st0" d="M217.8,60.6L212.2,76l13.3-12.4c5.8,1.6,11.7,2.4,17.7,2.4c22.4,0,40.5-10.8,40.5-24.1s-18.1-24.1-40.5-24.1
		s-40.5,10.8-40.5,24.1C202.8,49.5,208.7,56.2,217.8,60.6z"/>
	<path class="st2" d="M212.2,76.6c-0.1,0-0.3,0-0.4-0.1c-0.3-0.2-0.4-0.5-0.2-0.8L217,61c-9.5-4.7-14.9-11.6-14.9-19
		c0-13.6,18.5-24.8,41.2-24.8s41.2,11.1,41.2,24.8S266,66.7,243.3,66.7c-5.9,0-11.8-0.8-17.6-2.4l-13.1,12.1
		C212.6,76.6,212.4,76.6,212.2,76.6z M243.3,18.5c-22,0-39.9,10.5-39.9,23.4c0,7,5.4,13.6,14.7,18.1c0.3,0.2,0.4,0.5,0.3,0.8
		l-4.6,12.7L225.1,63c0.2-0.2,0.4-0.2,0.6-0.1c5.7,1.6,11.6,2.4,17.6,2.4c22,0,39.9-10.5,39.9-23.4S265.3,18.5,243.3,18.5z"/>
	<path class="st2" d="M273.8,35.8H220c-0.4,0-0.6-0.4-0.6-0.7s0.3-0.5,0.6-0.6h53.8c0.4,0,0.6,0.4,0.6,0.7
		C274.3,35.5,274.1,35.8,273.8,35.8L273.8,35.8z"/>
	<path class="st2" d="M257.3,47.6H220c-0.4,0-0.6-0.4-0.6-0.7s0.3-0.5,0.6-0.6h37.3c0.4,0,0.6,0.4,0.6,0.7S257.6,47.5,257.3,47.6
		L257.3,47.6z"/>
</g>
</svg>
