<svg transform="scale(1)" version="1.1" id="Layer_1" xmlns="http://www.w3.org/2000/svg" xmlns:xlink="http://www.w3.org/1999/xlink" x="0px" y="0px" viewBox="0 0 500 500" xml:space="preserve" class="show_show__wrapper__graphic__5Waiy "><title>React</title><style type="text/css">
	.st0{fill:#231F20;}
	.st1{fill:#FFFFFF;}
	.st2{fill:#ffffff;}
	.st3{fill:#D1D3D4;}
	.st4{fill:none;}
</style><g id="Smartphone"><path class="st0" d="M424,129.1c0,0-3.2-6-8.5-14.3c0,0-16.5,12.4-16.4,11.7S424,129.1,424,129.1z"></path><path class="st0" d="M424,129.8L424,129.8c-8.8-1.1-23-2.9-24.6-2.7c-0.4,0.2-0.5,0.1-0.7,0c-0.3-0.2-0.4-0.5-0.3-0.8
		c0-0.2,0.1-0.4,0.5-0.5l0,0c1-0.4,10.4-7.3,16.1-11.6c0.2-0.1,0.4-0.2,0.5-0.1c0.2,0,0.4,0.2,0.5,0.3c5.2,8.2,8.5,14.2,8.5,14.3
		c0.2,0.4,0,0.8-0.4,0.9C424.2,129.7,424.1,129.7,424,129.8L424,129.8z M401.6,125.8c3.1,0.2,9.1,0.8,21.1,2.4
		c-1.2-2.1-3.8-6.7-7.4-12.4C407.8,121.4,403.8,124.3,401.6,125.8L401.6,125.8z"></path><polygon class="st0" points="204.7,378.7 196.4,365 207.9,354.6 	"></polygon><path class="st0" d="M204.7,379.4c-0.2,0-0.5-0.1-0.6-0.3l-8.3-13.8c-0.2-0.3-0.1-0.7,0.1-0.9l11.4-10.3c0.3-0.3,0.7-0.2,1,0
		c0.1,0.2,0.2,0.4,0.2,0.6l-3.2,24.1c0,0.3-0.3,0.5-0.6,0.6L204.7,379.4z M197.4,365.1l6.9,11.5l2.7-20.2L197.4,365.1z"></path><path class="st0" d="M210.1,381.6l133,19c5.6,0.7,11-2.7,12.6-8.2L424.5,135c1.4-5.3-2-10-7.6-10.5l-135.6-11
		c-5.5-0.3-10.5,3.3-12.1,8.6l-66,248.9c-1.3,4.4,1.1,9,5.5,10.3C209.1,381.5,209.6,381.6,210.1,381.6z"></path><path class="st0" d="M344.5,401.4c-0.5,0-1.1,0-1.6-0.1l-132.9-19l0,0c-2.6-0.3-4.9-1.8-6.4-3.9c-1.5-2.2-1.9-5-1.1-7.5l66-248.9
		c1.7-5.6,7-9.4,12.8-9.1l135.6,10.9c2.8,0.1,5.4,1.5,7.1,3.8c1.5,2.2,2,5,1.2,7.6l-68.9,257.5C354.7,397.8,350,401.4,344.5,401.4z
		 M210.2,380.9l133,19c5.3,0.7,10.3-2.6,11.8-7.7l68.8-257.5c0.6-2.2,0.3-4.5-1-6.4c-1.4-1.9-3.6-3.1-6-3.2l-135.7-10.9
		c-5.2-0.3-9.9,3.1-11.3,8.1l-66,248.9c-0.6,2.2-0.3,4.5,0.9,6.4C206,379.5,208,380.7,210.2,380.9z"></path><path class="st1" d="M201.4,367.4l133,19c5.6,0.7,11-2.7,12.6-8.2l68.8-257.5c1.4-5.3-2-10-7.6-10.5L272.5,99.3
		c-5.5-0.3-10.5,3.3-12.1,8.6l-66,248.9c-1.3,4.4,1.2,9,5.5,10.3C200.5,367.3,200.9,367.4,201.4,367.4z"></path><path class="st0" d="M335.9,387.2c-0.5,0-1.1,0-1.6-0.1l-133-19c-2.6-0.3-4.9-1.8-6.4-3.9c-1.4-2.2-1.9-5-1.1-7.6l66-248.9
		c1.7-5.6,6.9-9.4,12.8-9.1l135.6,10.9c2.8,0.1,5.4,1.5,7.1,3.8c1.5,2.2,2,5,1.2,7.6l-68.8,257.5
		C346.1,383.6,341.3,387.2,335.9,387.2z M271.7,100c-4.9,0.1-9.2,3.4-10.6,8.1l-66,248.9c-0.6,2.2-0.2,4.5,1,6.4
		c1.2,1.8,3.2,3.1,5.4,3.3l0,0l133,19c5.3,0.6,10.2-2.6,11.7-7.7l68.8-257.5c0.6-2.2,0.3-4.5-1-6.4c-1.4-1.9-3.6-3.1-6-3.2
		L272.5,100C272.2,100,272,100,271.7,100z"></path><polygon class="st2" points="402.7,137.7 263.8,125.7 210.6,326.5 347.4,344.7 	"></polygon><path class="st1" d="M341.8,317c-0.3,0-0.5-0.2-0.6-0.4l-28-59.2c-0.2-0.4,0-0.8,0.3-0.9s0.8,0,0.9,0.3l28,59.2
		c0.2,0.4,0,0.8-0.3,0.9c0,0,0,0,0,0C342,317,341.9,317,341.8,317z"></path><path class="st1" d="M256.4,365.9l26,3.6c3.4,0.4,6.6-1.7,7.6-5l2.6-9.7c0.8-2.8-0.8-5.6-3.5-6.5c-0.3-0.1-0.6-0.2-1-0.2l-26-3.5
		c-3.4-0.4-6.5,1.7-7.5,5l-2.6,9.6c-0.8,2.7,0.8,5.6,3.5,6.4C255.8,365.8,256.1,365.9,256.4,365.9z"></path><path class="st3" d="M283.2,370.4c-0.3,0-0.7,0-1-0.1l-26-3.6l0,0c-3.2-0.4-5.6-3.2-5.2-6.5c0-0.3,0.1-0.7,0.2-1l2.6-9.6
		c1.1-3.6,4.5-5.9,8.2-5.5l26,3.5c1.8,0.2,3.3,1.1,4.3,2.6c1,1.4,1.2,3.2,0.8,4.9l-2.6,9.7C289.5,368,286.6,370.3,283.2,370.4z
		 M256.5,365.2l26,3.6c3.1,0.4,5.9-1.5,6.8-4.5l2.6-9.7c0.4-1.3,0.2-2.7-0.6-3.8c-0.8-1.1-2-1.8-3.3-2l-26-3.5
		c-3-0.3-5.9,1.5-6.7,4.5l-2.6,9.6c-0.7,2.4,0.6,4.9,3,5.6C255.9,365.2,256.2,365.2,256.5,365.2z"></path><path class="st3" d="M361.6,120.4L361.6,120.4l-39.7-3.3c-0.4,0-0.7-0.4-0.6-0.7c0,0,0,0,0,0c0-0.4,0.4-0.7,0.8-0.6l39.7,3.3
		c0.4,0,0.7,0.3,0.7,0.7C362.3,120.1,362,120.4,361.6,120.4L361.6,120.4z"></path><path class="st3" d="M316.4,116.7L316.4,116.7l-5.3-0.4c-0.4,0-0.7-0.4-0.6-0.8c0-0.4,0.4-0.7,0.8-0.6l0,0l5.2,0.4
		c0.4,0,0.7,0.3,0.7,0.7C317.1,116.4,316.8,116.7,316.4,116.7L316.4,116.7z"></path><path class="st1" d="M334.9,168.8c-0.2,0-0.5-0.1-0.6-0.3L315.5,139c-0.2-0.3-0.1-0.8,0.2-1c0.3-0.2,0.8-0.1,1,0.2c0,0,0,0,0,0.1
		l18.8,29.4c0.2,0.3,0.2,0.7-0.2,1c0,0,0,0-0.1,0C335.1,168.8,335,168.8,334.9,168.8z"></path><path class="st1" d="M278.1,160.3c-0.3,0-0.5-0.1-0.6-0.4l-9.6-18.5c-0.2-0.3,0-0.8,0.3-0.9c0.3-0.2,0.8-0.1,0.9,0.3c0,0,0,0,0,0
		l9.6,18.5c0.2,0.3,0,0.8-0.3,0.9C278.3,160.2,278.2,160.2,278.1,160.3L278.1,160.3z"></path></g><g id="Note"><path class="st0" d="M355.4,248.5c0,0,17-56.2,2.3-68.7l-72.4-8.7c0,0-12.4,12.9-14.2,22.9s-16.8,31-11.2,43.6L355.4,248.5z"></path><path class="st0" d="M355.4,249.2L355.4,249.2l-95.5-10.9c-0.2,0-0.5-0.2-0.6-0.4c-3.9-8.8,1.8-21.4,6.4-31.6
		c2.2-5,4.2-9.3,4.8-12.5c1.8-10,13.9-22.7,14.4-23.2c0.1-0.2,0.4-0.2,0.6-0.2l72.4,8.7c0.1,0,0.3,0.1,0.4,0.2
		c15,12.6-1.3,67.1-2,69.4C356,249,355.7,249.2,355.4,249.2z M260.4,237l94.5,10.8c1.7-5.9,15.7-55.6,2.5-67.3l-71.8-8.6
		c-1.7,1.8-12.2,13.4-13.8,22.2c-0.6,3.3-2.6,7.7-4.9,12.8C262.5,216.7,257.1,228.8,260.4,237L260.4,237z"></path><line class="st4" x1="241.3" y1="232.5" x2="362.2" y2="249.5"></line><path class="st0" d="M362.2,250.2h-0.1l-120.9-17c-0.4-0.1-0.6-0.4-0.6-0.8c0.1-0.4,0.4-0.6,0.8-0.6l120.9,17
		c0.4,0.1,0.6,0.4,0.6,0.8C362.8,249.9,362.5,250.1,362.2,250.2z"></path><path class="st1" d="M357.6,179.8c0,0-7.3,1-11.8,16.3c-6.9,23.4-15.9,72.6-21.7,91.2c-8.3,27-30.8,30.8-30.8,30.8l-94.7-13.7
		c0,0,38.5-13.4,45-36.1c6.9-23.9,16.4-69.1,18.9-79.2c4.5-17.9,22.8-17.9,22.8-17.9L357.6,179.8z"></path><path class="st0" d="M293.3,318.7h-0.1L198.5,305c-0.3,0-0.6-0.3-0.6-0.6c0-0.3,0.2-0.6,0.5-0.7c0.4-0.1,38.3-13.5,44.6-35.6
		c4.8-16.6,10.8-43.7,14.9-61.7c1.8-8.1,3.2-14.4,4-17.5c4.6-18.2,23.2-18.4,23.4-18.4l72.4,8.7c0.4,0,0.7,0.4,0.6,0.8
		c0,0.3-0.3,0.6-0.6,0.6c-0.1,0-7,1.3-11.3,15.8c-3.5,11.8-7.5,30.2-11.4,48.1c-3.8,17.5-7.4,33.9-10.3,43.1
		c-4.4,14.1-12.6,21.9-18.8,25.9C302.1,315.9,297.9,317.7,293.3,318.7L293.3,318.7z M201.4,304l91.9,13.3c1.6-0.3,22.4-5,30.2-30.3
		c2.8-9.1,6.4-25.6,10.2-43c3.9-17.8,7.9-36.3,11.4-48.2c3-10,7.1-14.1,9.8-15.7l-69.7-8.4c-0.6,0-17.7,0.2-22,17.4
		c-0.8,3.1-2.2,9.4-4,17.5c-4,18-10.1,45.1-14.9,61.8c-3.4,12-15.6,21.3-25.3,27C213.4,298.7,207.5,301.6,201.4,304z"></path><path class="st3" d="M312.1,288.9H312l-12.8-1.5c-0.4,0-0.7-0.4-0.6-0.8s0.4-0.7,0.8-0.6c0,0,0,0,0,0l12.8,1.5
		c0.4,0,0.7,0.4,0.6,0.8C312.7,288.6,312.4,288.9,312.1,288.9z"></path><path class="st3" d="M288.9,286.3L288.9,286.3l-38.4-4.4c-0.4-0.1-0.6-0.4-0.6-0.8c0.1-0.4,0.4-0.6,0.7-0.6l38.4,4.4
		c0.4,0.1,0.6,0.4,0.6,0.8C289.5,286,289.3,286.3,288.9,286.3L288.9,286.3z"></path><path class="st3" d="M300.6,303.5L300.6,303.5l-11.9-1.3c-0.4,0-0.7-0.4-0.6-0.8c0-0.4,0.4-0.7,0.8-0.6c0,0,0,0,0,0l11.8,1.3
		c0.4,0,0.7,0.4,0.7,0.7S301,303.6,300.6,303.5z"></path><path class="st3" d="M275.8,300.7L275.8,300.7l-36.8-4.2c-0.4,0-0.7-0.4-0.6-0.8c0,0,0,0,0,0c0-0.4,0.4-0.7,0.8-0.6c0,0,0,0,0,0
		l36.7,4.2c0.4,0.1,0.6,0.4,0.6,0.8C276.4,300.4,276.1,300.7,275.8,300.7L275.8,300.7z"></path><path class="st1" d="M293.3,318c-11.2-10.4-16.9-25.5-15.2-40.7l-99.4-17.9c0,0,8.5,33.3,19.9,44.9L293.3,318z"></path><path class="st0" d="M293.3,318.7h-0.1L198.5,305c-0.2,0-0.3-0.1-0.4-0.2c-11.3-11.6-19.7-43.8-20.1-45.2c-0.1-0.4,0.1-0.8,0.5-0.9
		c0.1,0,0.2,0,0.3,0l99.4,17.9c0.4,0.1,0.6,0.4,0.6,0.8c-1.6,15,3.9,29.8,15,40.1c0.3,0.2,0.3,0.7,0.1,1
		C293.7,318.6,293.5,318.7,293.3,318.7L293.3,318.7z M198.9,303.6l92.3,13.4c-10.1-10.4-15.2-24.7-13.9-39.1l-97.7-17.6
		C181.2,266,189.1,293.3,198.9,303.6L198.9,303.6z"></path><path class="st3" d="M332.7,201.7L332.7,201.7l-61.7-7c-0.4,0-0.7-0.4-0.6-0.8c0-0.4,0.4-0.7,0.8-0.6c0,0,0,0,0,0l61.6,7
		c0.4,0,0.7,0.3,0.7,0.7C333.4,201.4,333.1,201.7,332.7,201.7L332.7,201.7z"></path><path class="st3" d="M330.1,217.5L330.1,217.5l-11.6-1.3c-0.4-0.1-0.6-0.4-0.6-0.8c0.1-0.4,0.4-0.6,0.7-0.6l11.6,1.3
		c0.4,0,0.7,0.4,0.7,0.7S330.5,217.5,330.1,217.5L330.1,217.5L330.1,217.5z"></path><path class="st3" d="M305.6,214.7L305.6,214.7l-37.1-4.2c-0.4,0-0.7-0.4-0.6-0.8c0,0,0,0,0,0c0-0.4,0.4-0.7,0.8-0.6c0,0,0,0,0,0
		l37.1,4.2c0.4,0,0.7,0.4,0.6,0.8C306.2,214.5,305.9,214.7,305.6,214.7z"></path><path class="st3" d="M326.3,232.3L326.3,232.3l-19.1-2.2c-0.4,0-0.7-0.4-0.6-0.8c0,0,0,0,0,0c0-0.4,0.4-0.7,0.8-0.6l19,2.2
		c0.4,0.1,0.6,0.4,0.6,0.8C326.9,232,326.6,232.3,326.3,232.3L326.3,232.3z"></path><path class="st3" d="M288.9,228L288.9,228l-24.3-2.7c-0.4-0.1-0.6-0.4-0.6-0.8c0.1-0.4,0.4-0.6,0.7-0.6l24.2,2.8
		c0.4,0,0.7,0.4,0.6,0.8c0,0,0,0,0,0C289.5,227.8,289.2,228,288.9,228z"></path><path class="st3" d="M323,246.3L323,246.3l-15.9-1.8c-0.4,0-0.7-0.4-0.6-0.8c0-0.4,0.4-0.7,0.8-0.6c0,0,0,0,0,0l15.9,1.8
		c0.4,0,0.7,0.4,0.6,0.8C323.7,246,323.4,246.3,323,246.3C323,246.3,323,246.3,323,246.3z"></path><path class="st3" d="M290.2,242.5L290.2,242.5l-28.8-3.3c-0.4,0-0.7-0.4-0.6-0.8c0,0,0,0,0,0c0-0.4,0.4-0.7,0.8-0.6c0,0,0,0,0,0
		l28.7,3.3c0.4,0.1,0.6,0.4,0.6,0.8C290.8,242.3,290.5,242.5,290.2,242.5L290.2,242.5z"></path><path class="st3" d="M319.7,261.8L319.7,261.8l-14.2-1.6c-0.4,0-0.7-0.4-0.6-0.8s0.4-0.7,0.8-0.6c0,0,0,0,0,0l14.1,1.6
		c0.4,0.1,0.6,0.4,0.6,0.8C320.3,261.5,320,261.7,319.7,261.8L319.7,261.8z"></path><path class="st3" d="M296.8,259.1L296.8,259.1l-38.8-4.4c-0.4,0-0.7-0.4-0.6-0.8c0-0.4,0.4-0.7,0.8-0.6c0,0,0,0,0,0l38.7,4.4
		c0.4,0.1,0.6,0.4,0.6,0.8C297.4,258.9,297.1,259.1,296.8,259.1L296.8,259.1z"></path><path class="st3" d="M316.1,274.3H316l-16.8-1.9c-0.4-0.1-0.6-0.4-0.6-0.8c0.1-0.4,0.4-0.6,0.7-0.6l16.8,1.9
		c0.4,0.1,0.6,0.4,0.6,0.8C316.7,274,316.4,274.3,316.1,274.3L316.1,274.3z"></path><path class="st3" d="M291.7,271.5L291.7,271.5l-37.3-4.2c-0.4,0-0.7-0.4-0.6-0.8c0-0.4,0.4-0.7,0.8-0.6l37.2,4.2
		c0.4,0,0.7,0.4,0.6,0.8C292.4,271.3,292.1,271.5,291.7,271.5z"></path></g><g id="Card"><path class="st1" d="M130.5,249.6l-32.1-69.1c-2.7-5.7-0.2-12.5,5.5-15.2l106-49.3c5.7-2.7,12.5-0.2,15.2,5.5l32.1,69.1
		c2.7,5.7,0.2,12.5-5.5,15.2l-106,49.3C139.9,257.8,133.2,255.3,130.5,249.6z"></path><path class="st0" d="M140.9,256.9c-4.7,0-9-2.7-11-7l-32.1-69.1c-2.8-6.1-0.2-13.3,5.9-16.1c0,0,0,0,0,0l106-49.3
		c6.1-2.8,13.3-0.2,16.1,5.9l32.1,69.1c2.8,6.1,0.2,13.3-5.9,16.1l-106,49.3C144.4,256.5,142.6,256.9,140.9,256.9z M214.7,115.7
		c-1.6,0-3.1,0.3-4.5,1l-106,49.3c-5.4,2.5-7.7,8.9-5.2,14.2l0,0l32.1,69.1c2.5,5.4,8.9,7.7,14.2,5.2l106-49.3
		c5.4-2.5,7.7-8.9,5.2-14.2l-32.1-69.1C222.7,118.1,218.9,115.7,214.7,115.7z"></path><path class="st2" d="M199.2,166.6l-8.1-17.4c-1.9-4.1-0.1-9,4-11l12.3-5.7c4.1-1.9,9-0.1,11,4l8.1,17.4c1.9,4.1,0.1,9-4,11
		l-12.3,5.7C206,172.5,201.1,170.7,199.2,166.6z"></path><path class="st3" d="M112.7,182.1L112.7,182.1c-1.2-2.5-0.1-5.6,2.5-6.7l23.8-11.1c2.5-1.2,5.6-0.1,6.7,2.5l0,0
		c1.2,2.5,0.1,5.6-2.5,6.7l-23.8,11.1C116.9,185.7,113.8,184.6,112.7,182.1z"></path><path class="st3" d="M220,198.7l-2.3-4.9c-0.6-1.3,0-2.8,1.2-3.4l17.9-8.3c1.3-0.6,2.8,0,3.4,1.2l2.3,4.9c0.6,1.3,0,2.8-1.2,3.4
		l-17.9,8.3C222.1,200.5,220.5,200,220,198.7z"></path><path class="st3" d="M192.7,211.4l-2.3-4.9c-0.6-1.3,0-2.8,1.2-3.4l17.9-8.3c1.3-0.6,2.8,0,3.4,1.2l2.3,4.9c0.6,1.3,0,2.8-1.2,3.4
		l-17.9,8.3C194.8,213.2,193.3,212.7,192.7,211.4z"></path><path class="st3" d="M165.4,224.1l-2.3-4.9c-0.6-1.3,0-2.8,1.2-3.4l17.9-8.3c1.3-0.6,2.8,0,3.4,1.2l2.3,4.9c0.6,1.3,0,2.8-1.2,3.4
		l-17.9,8.3C167.5,225.9,166,225.4,165.4,224.1z"></path><path class="st3" d="M138.1,236.8l-2.3-4.9c-0.6-1.3,0-2.8,1.2-3.4l17.9-8.3c1.3-0.6,2.8,0,3.4,1.2l2.3,4.9c0.6,1.3,0,2.8-1.2,3.4
		l-17.9,8.3C140.2,238.6,138.7,238.1,138.1,236.8z"></path></g><g id="Coin"><path class="st1" d="M121.7,268.8l-5.9,6.7c-3.7,4.7-15.6,1.4-26.5-7.4s-16.7-19.6-13-24.3l5.9-6.7L121.7,268.8z"></path><path class="st0" d="M110.3,278.4c-5.6,0-13.7-3.5-21.4-9.6c-4.9-3.8-9-8.5-12.2-13.9c-2.6-4.8-2.9-8.9-0.9-11.4l5.9-6.8
		c0.2-0.3,0.7-0.4,1-0.1c0,0,0,0,0,0l39.5,31.6c0.1,0.1,0.2,0.3,0.3,0.5c0,0.2,0,0.4-0.2,0.5l-5.9,6.7
		C115.1,277.6,113,278.4,110.3,278.4z M82.3,238.1l-5.4,6.2c-1.6,2-1.2,5.6,1.1,9.8c3,5.2,7,9.8,11.8,13.5
		c10.4,8.3,22.1,11.7,25.5,7.5l5.4-6.2L82.3,238.1z"></path><ellipse class="st1" transform="matrix(0.6251 -0.7805 0.7805 0.6251 -159.2352 174.44)" cx="102" cy="253" rx="10.8" ry="25.3"></ellipse><path class="st0" d="M116.2,271.6c-5.6,0-13.7-3.5-21.4-9.6c-4.9-3.8-9-8.5-12.2-13.9c-2.6-4.9-2.9-8.9-0.9-11.4l0,0
		c2-2.5,6-3.1,11.3-1.6c5.9,1.9,11.4,4.9,16.2,8.8c11.4,9.1,17.1,20.2,13.1,25.3C121,270.9,118.8,271.6,116.2,271.6z M87.8,235.8
		c-2.3,0-4,0.6-5,1.9l0,0c-1.6,2-1.2,5.6,1.1,9.9c3,5.2,7,9.8,11.8,13.4c10.4,8.3,22.1,11.8,25.5,7.5s-2.4-15-12.9-23.3
		c-4.6-3.9-9.9-6.8-15.7-8.6C91,236,89.4,235.8,87.8,235.8L87.8,235.8z M82.2,237.2L82.2,237.2z"></path><path class="st3" d="M92.8,241l2.6,2.4l0.3,0.1c0.8,0.2,1.6,0.3,2.4,0.5c2.2,0.6,4.3,1.6,6.2,2.9c1.2,0.8,2.2,1.7,3.2,2.8
		c0.6,0.6,1,1.3,1.1,2.1c0,0.6-0.3,1.1-0.8,1.4c-0.4,0.3-0.9,0.5-1.3,0.8l4.8,4.6c0.8-0.6,0.5-1.6-0.7-2.8l3-0.5
		c0.9,0.8,1.6,1.8,2.2,2.8c0.5,0.8,0.4,1.8-0.2,2.6c-0.3,0.3-0.7,0.6-1.1,0.9l1.8,1.7l-2.8,0.9l-1.8-1.7c-0.9,0-1.7,0-2.6,0
		c-1.7-0.1-3.4-0.6-5-1.3c-2.1-0.9-4-2.3-5.6-4c-1.6-1.8-2-3.1-1-4.1c0.7-0.6,1.4-1,2.3-1.3c0.1,0,0.2-0.1,0.3-0.1l-4.9-4.6H95
		c-0.1,0.3-0.2,0.6-0.2,0.9c0.2,0.6,0.5,1.2,1,1.6l-4.6,0.3c-0.4-0.4-0.7-0.8-1-1.1c-1.2-1.4-1.6-2.6-1.3-3.5
		c0.5-0.9,1.4-1.5,2.4-1.6c0.2,0,0.2-0.1,0-0.2l-2.6-2.5L92.8,241z M103.8,255.1c-0.4,0.3-1,0.6-0.9,1.3c0.1,0.8,1.6,2,3.1,2.5
		c0.7,0.2,1.4,0.4,2.2,0.3L103.8,255.1z M102.7,250.4c0.4-0.2,0.8-0.4,0.8-0.8c0.1-0.7-1.4-2-2.9-2.6c-0.7-0.2-1.3-0.4-2-0.6
		L102.7,250.4z"></path><path class="st1" d="M167.2,339.8l3.4,8.2c2.5,5.4-5.7,14.6-18.4,20.5s-25,6.3-27.5,0.9l-3.4-8.2L167.2,339.8z"></path><path class="st0" d="M134,374c-4.9,0-8.5-1.4-9.8-4.2l-3.4-8.3c-0.1-0.3,0-0.7,0.3-0.9l45.9-21.4c0.2-0.1,0.4-0.1,0.6,0
		c0.2,0.1,0.3,0.2,0.4,0.4l3.4,8.2c2.7,5.8-5.5,15.2-18.7,21.4C145.8,372.4,139.2,374,134,374z M122.3,361.6l3.2,7.6
		c2.3,5,14.5,4.4,26.6-1.2s20.3-14.6,18-19.6l-3.2-7.6L122.3,361.6z"></path><ellipse class="st1" transform="matrix(0.9065 -0.4221 0.4221 0.9065 -134.4874 93.6764)" cx="144.3" cy="350.5" rx="25.3" ry="10.8"></ellipse><path class="st0" d="M130.5,365.7c-5,0-8.5-1.5-9.8-4.2c-2.7-5.9,5.5-15.3,18.7-21.4s25.7-6.4,28.4-0.5s-5.5,15.3-18.7,21.4
		c-5.6,2.7-11.6,4.3-17.8,4.7L130.5,365.7z M158.1,336.7c-5,0-11.6,1.6-18.1,4.6c-12.1,5.6-20.3,14.6-18,19.6
		c1.1,2.3,4.5,3.6,9.3,3.4c6-0.4,11.9-2,17.3-4.6c12.1-5.6,20.3-14.6,18-19.6C165.5,337.9,162.4,336.7,158.1,336.7L158.1,336.7z"></path><path class="st3" d="M129.5,353.4l3.3-1.2l0.2-0.2c0.5-0.7,1-1.3,1.5-2c1.5-1.7,3.3-3.2,5.3-4.2c1.2-0.7,2.6-1.2,3.9-1.6
		c0.8-0.3,1.6-0.3,2.4,0c0.5,0.2,0.9,0.7,0.9,1.3c0.1,0.5,0.1,1,0.1,1.5l6.2-2.3c-0.2-1-1.2-1.1-2.8-0.6l0.9-2.9
		c1.1-0.5,2.3-0.7,3.5-0.7c0.9,0,1.8,0.5,2.2,1.4c0.2,0.4,0.3,0.9,0.4,1.4l2.3-0.8l-0.4,2.9l-2.3,0.9c-0.4,0.8-0.7,1.5-1.2,2.3
		c-0.9,1.5-2.1,2.8-3.4,3.9c-1.8,1.5-3.8,2.6-6,3.2c-2.3,0.7-3.7,0.4-4.1-0.9c-0.2-0.8-0.3-1.7-0.1-2.6c0-0.1,0-0.2,0-0.4l-6.3,2.4
		l-0.1,0.1c0.2,0.2,0.5,0.4,0.7,0.6c0.6,0.1,1.3,0.1,1.9-0.2l-1.8,4.2c-0.5,0.1-1,0.3-1.5,0.4c-1.8,0.5-3,0.3-3.7-0.4
		c-0.6-0.8-0.7-1.9-0.3-2.8c0-0.1,0-0.2-0.2-0.1l-3.4,1.2L129.5,353.4z M147.1,349.8c0.1,0.5,0.1,1.1,0.8,1.4s2.6-0.6,3.6-1.6
		c0.5-0.5,1-1.1,1.2-1.8L147.1,349.8z M142.4,348.7c0-0.4,0-0.9-0.3-1.1c-0.6-0.4-2.4,0.4-3.6,1.5c-0.5,0.5-0.9,1-1.4,1.5
		L142.4,348.7z"></path><path class="st1" d="M133.7,288.3c-5,8.3,0.6,26.7,0.6,26.7l7.4,5.4c11.1,6.6,25.4,3.1,32.1-8c6.6-11.1,3.1-25.4-8-32.1l-8.2-4
		C157.6,276.3,138.7,280,133.7,288.3z"></path><path class="st0" d="M153.7,324.4c-4.4,0-8.6-1.2-12.4-3.4l-7.4-5.4c-0.1-0.1-0.2-0.2-0.3-0.4c-0.2-0.8-5.6-18.8-0.5-27.3l0,0
		c5.1-8.5,23.5-12.2,24.3-12.3c0.2,0,0.3,0,0.4,0.1l8.2,4c11.4,6.8,15.1,21.6,8.3,33c-3.3,5.5-8.6,9.4-14.8,11
		C157.6,324.2,155.7,324.4,153.7,324.4z M134.9,314.6l7.2,5.2c10.7,6.4,24.7,2.9,31.1-7.8s2.9-24.7-7.8-31.1l-7.9-3.9
		c-2.1,0.5-18.7,4.2-23.2,11.6l0,0C129.8,296.1,134.3,312.5,134.9,314.6z M133.7,288.3L133.7,288.3z"></path><circle class="st1" cx="148.6" cy="297.3" r="23.4"></circle><path class="st0" d="M148.6,321.4c-13.3,0-24.1-10.8-24-24.1s10.8-24.1,24.1-24c4.4,0,8.6,1.2,12.4,3.4l0,0
		c11.4,6.8,15.1,21.6,8.2,33C164.9,317,157,321.4,148.6,321.4L148.6,321.4z M148.7,274.6c-12.5,0-22.7,10.1-22.7,22.6
		c0,12.5,10.1,22.7,22.6,22.7s22.7-10.1,22.7-22.6c0-8-4.2-15.4-11-19.5C156.8,275.8,152.8,274.6,148.7,274.6L148.7,274.6z"></path><path class="st3" d="M135.5,286.6l2.9,1.8c0.1,0.1,0.3,0.1,0.4,0c0,0,0,0,0,0c1.1-1.3,2.6-2.2,4.1-2.8c1.7-0.6,3.5-0.6,5.2,0.1
		c0.4,0.2,0.9,0.4,1.4,0.6l-2.7,4.5c-0.7-0.4-1.5-0.6-2.3-0.4c-0.6,0.2-1.2,0.3-1.8,0.6v0.2l5.6,3.4l0.4-0.4c1-1.1,2.1-2,3.3-2.9
		c1.8-1.3,4.1-1.5,6.1-0.5c1.9,0.8,3.4,2.2,4.2,4.1c0.7,1.5,0.8,3.2,0.5,4.8c-0.2,1-0.5,2-0.8,3l2.2,1.3l-2.5,4.1l-2.2-1.4
		c-0.7,0.7-1.4,1.4-2.1,2c-1.4,1.2-3.2,1.9-5,2c-1.6,0-3.2-0.4-4.5-1.2l2.7-4.4c1.6,0.9,3.6,0.6,4.9-0.7l-6-3.6
		c-0.8,0.7-1.5,1.4-2.2,2.1c-0.9,0.8-2,1.5-3.1,1.8c-1.2,0.3-2.5,0.2-3.7-0.2c-1.4-0.5-2.7-1.4-3.7-2.6c-1.4-1.7-2-4-1.5-6.2
		c0.2-0.9,0.5-1.7,0.8-2.6c0-0.1,0.1-0.2,0.1-0.3l-3-1.8L135.5,286.6z M158,300.1c0.3-0.7,0.4-1.6,0.3-2.4c-0.3-1.4-1.5-2.4-2.9-2.3
		c-1,0.3-1.8,0.8-2.5,1.5L158,300.1z M139.9,294.9c-0.1,0.7-0.1,1.4-0.1,2.1c0.1,1.4,1.4,2.5,2.8,2.4c0.1,0,0.3,0,0.4-0.1
		c0.7-0.3,1.4-0.8,1.9-1.4L139.9,294.9z"></path></g></svg>