<svg transform="scale(1)" version="1.1" id="Layer_1" xmlns="http://www.w3.org/2000/svg" xmlns:xlink="http://www.w3.org/1999/xlink" x="0px" y="0px" viewBox="0 0 500 500" xml:space="preserve" class="show_show__wrapper__graphic__5Waiy "><title>React</title><style type="text/css">
	.st0{fill:#bed730;}
	.st1{fill:#FFFFFF;}
	.st2{fill:#231F20;}
	.st3{fill:#D1D3D4;}
</style><g id="Character"><path class="st0" d="M218,221.9c0,0-42,12.3-49.9,16.9c-28.7,16.7-51.8,95.5-52.4,109.3s25.9,38.6,25.9,38.6l35.6-13.8
		c0,0-17.5-27.9-11.9-42.7c5.9-15.4,12.8-30.4,20.6-44.9c0,0-6.7,28.8-5.8,39.5s9.4,61.9,9.4,61.9h111.1c0,0,9.9-41.6,10.3-67.2
		s-6.5-37.2-6.5-37.2s13.5,21.1,19.4,46.3c1.4,6.1-9.9,35.1-9.9,35.1s31.4-8.7,44.6,6.6c7.1-10.5,10.6-22.9,9.9-35.5
		c-1.2-20.7-38.8-89.5-44.7-92.1c-16.6-7.3-41.1-19.2-48.9-18.5S218,221.9,218,221.9z"></path><rect class="st1" x="240.1" y="241.6" width="8.6" height="28.2"></rect><path class="st2" d="M248.6,270.5h-8.6c-0.4,0-0.7-0.3-0.7-0.7l0,0v-28.2c0-0.4,0.3-0.7,0.7-0.7l0,0h8.6c0.4,0,0.7,0.3,0.7,0.7l0,0
		v28.2C249.4,270.2,249,270.5,248.6,270.5L248.6,270.5z M240.8,269.1h7.1v-26.8h-7.1V269.1z"></path><path class="st1" d="M291,76.4c23.7,10.4,33.9,38.2,39.3,63.6c2.8,13.1,6.5,28.5,18.8,33.8c13.3,5.8,28.1-4,38.3-14.4
		c-6.8,12.9-14.1,26.3-26.2,34.2c-12.5,8.2-28.2,9.4-43.1,8.6c-8.9-0.4-18-1.5-26-5.5c-24.6-12.2-29.1-45.3-47.2-66
		c-14.9-17-22.3-28.7-2.6-45.7C255.3,73.9,274.8,69.3,291,76.4z"></path><path class="st2" d="M325,203.2c-2.5,0-4.9-0.1-7.1-0.2c-8.3-0.4-17.9-1.4-26.3-5.5c-15.1-7.5-23-23.1-30.5-38.2
		c-4.9-9.8-9.9-19.9-16.9-27.9c-8.4-9.6-15.3-18.4-14.7-27.6c0.4-6.3,4.3-12.4,12.1-19.1c14.1-12.2,34-15.7,49.6-8.9
		c19.4,8.5,32.4,29.5,39.7,64.1c3.1,14.7,6.9,28.3,18.4,33.3c15,6.5,31.2-7.8,37.5-14.2c0.3-0.3,0.6-0.3,0.9-0.1
		c0.3,0.2,0.4,0.6,0.2,0.9c-6.5,12.3-13.9,26.2-26.5,34.5C350.2,201.6,336.3,203.2,325,203.2z M274.3,73.8
		c-11.7,0.1-22.9,4.4-31.7,12c-7.5,6.5-11.2,12.2-11.6,18.1c-0.6,8.6,6.1,17.1,14.3,26.5c7.1,8.2,12.2,18.4,17.1,28.2
		c7.8,15.6,15.1,30.3,29.8,37.6c8.2,4.1,17.6,5,25.8,5.4c11.9,0.6,29.3,0.3,42.7-8.5c11-7.2,17.9-18.9,23.9-30
		c-7.9,7.1-22.2,17.2-35.8,11.4c-13.2-5.7-16.8-22.9-19.2-34.3c-7.2-34.1-19.9-54.7-38.8-63l0,0C285.5,74.8,279.9,73.7,274.3,73.8z"></path><path class="st1" d="M264.3,101.4c2.2,0.8,4.1,2,5.8,3.6c2,2.1,2.9,4.5,5.4,6.3s5.2,2.9,7.7,4.6c8.3,5.4,13.3,15.1,14.1,25
		c0.5,7.3-0.9,14.6-3.9,21.2c-2.3,5.4-3.7,9.8-8.1,13.9c-7.7,6.9-16.7,12.1-26.5,15.3c-9.4,3.1-21.7-0.4-30.7-3.9
		c-5-2-10-4.7-13-9.2c-0.5-0.9-1.2-1.8-1.9-2.5c-0.7-0.5-1.4-1-2.2-1.4c-13.7-7.5-15.9-23.1-11.4-36.6c2.4-7.2,5.1-17.5,11.6-22.1
		c2.7-1.9,5.7-3.3,8.2-5.4c1.6-1.4,3-3.1,4.7-4.6c6.9-6.1,19.2-9.1,28.2-7.2C255.9,99.2,260.4,99.9,264.3,101.4z"></path><path class="st2" d="M250.6,193.2c-6.4,0-14-1.8-22.7-5.2c-4.1-1.6-9.9-4.4-13.3-9.4l-0.4-0.6c-0.4-0.7-0.9-1.3-1.4-1.8
		c-0.5-0.4-1.1-0.8-1.7-1.1l-0.3-0.2c-15.1-8.2-15.8-25.3-11.8-37.5c0.3-0.8,0.5-1.6,0.8-2.5c2.2-7,5-15.7,11.1-19.9
		c1.1-0.7,2.2-1.4,3.3-2.1c1.7-1,3.3-2.1,4.9-3.3c0.8-0.7,1.6-1.5,2.4-2.3s1.5-1.5,2.3-2.2c7-6.2,19.4-9.3,28.8-7.3l2.4,0.5
		c3.3,0.6,6.6,1.4,9.7,2.5l0,0c2.3,0.8,4.3,2.1,6.1,3.8c0.8,0.8,1.4,1.7,2.1,2.6c0.9,1.4,2,2.6,3.2,3.6c1.4,0.9,2.8,1.8,4.2,2.5
		c1.1,0.6,2.3,1.3,3.5,2c8.1,5.2,13.6,15,14.4,25.5c0.5,7.4-0.9,14.8-4,21.6c-0.4,0.9-0.7,1.7-1.1,2.6c-1.8,4.3-3.4,8.1-7.2,11.5
		c-7.7,7-16.9,12.3-26.8,15.5C256.3,192.9,253.5,193.3,250.6,193.2z M246.4,98.6c-7.8,0-16.5,2.9-21.8,7.6c-0.8,0.7-1.5,1.4-2.2,2.2
		s-1.6,1.7-2.5,2.4c-1.6,1.3-3.3,2.4-5.1,3.4c-1.1,0.6-2.2,1.3-3.2,2c-5.6,3.9-8.3,12.4-10.5,19.2c-0.3,0.9-0.6,1.7-0.8,2.5
		c-3.9,11.6-3.3,27.9,11.1,35.8l0.3,0.2c1.6,0.7,2.9,1.9,3.7,3.4l0.4,0.6c2.5,3.6,6.5,6.4,12.7,8.9c12.7,5.1,22.8,6.4,30.2,3.9
		c9.7-3.2,18.7-8.3,26.3-15.1c3.6-3.3,5.1-6.9,6.8-11c0.3-0.8,0.7-1.7,1.1-2.6c3-6.5,4.3-13.7,3.8-20.9
		c-0.8-10.1-6.1-19.4-13.8-24.4c-1.1-0.7-2.2-1.3-3.4-2c-1.5-0.8-3-1.7-4.4-2.6c-1.4-1.1-2.6-2.4-3.6-3.9c-0.6-0.9-1.2-1.7-1.9-2.4
		c-1.6-1.5-3.5-2.7-5.5-3.5l0,0c-3.1-1.1-6.3-1.9-9.5-2.5c-0.8-0.2-1.7-0.3-2.4-0.5C250.3,98.7,248.3,98.6,246.4,98.6z"></path><path class="st1" d="M263.9,223.9c0,0-11.5,17.9-19.5,17.7S227.4,225,227.4,225l0.5-8.8l1.2-20.3l1.1-19l32.6-0.4l1.2,15.5l0.4,5
		L263.9,223.9z"></path><path class="st2" d="M244.5,242.3h-0.1c-8.3-0.2-17.2-16.2-17.5-16.9c-0.1-0.1-0.1-0.3-0.1-0.4l2.8-48.1c0-0.4,0.3-0.7,0.7-0.7
		l32.6-0.4l0,0c0.4,0,0.7,0.3,0.7,0.7l1.6,20.6l-0.6,26.8c0,0.1-0.1,0.3-0.1,0.4C264,225,252.8,242.3,244.5,242.3z M228.2,224.9
		c1,1.8,9.1,15.8,16.2,16h0.1c7.1,0,17.5-15.4,18.7-17.2l0.6-26.5l-1.6-19.8l-31.3,0.3L228.2,224.9z M263.9,223.9L263.9,223.9z"></path><path class="st2" d="M264.5,197.1c-2.4,4.6-6.5,8.2-10.6,10.9c-7,4.5-17.4,9.7-26,8.3l1.2-20.3c6.2,0.8,12.6,0.8,18.8-0.1
		c5.5-0.6,11.1-1.3,16.2-3.8L264.5,197.1z"></path><path class="st2" d="M231,217.2c-1,0-2.1-0.1-3.1-0.2c-0.4-0.1-0.6-0.4-0.6-0.7l1.2-20.3c0-0.2,0.1-0.4,0.3-0.5
		c0.2-0.1,0.4-0.2,0.6-0.1c6.2,0.8,12.4,0.8,18.6-0.1c5.1-0.6,10.9-1.2,15.9-3.7c0.3-0.2,0.8,0,0.9,0.3c0,0.1,0.1,0.2,0.1,0.2l0.4,5
		c0,0.1,0,0.3-0.1,0.4c-2.2,4.1-5.8,7.9-10.8,11.1C249.1,212,239.6,217.2,231,217.2z M228.7,215.7c8.9,1.1,19.3-4.6,24.8-8.2
		c4.2-2.6,7.7-6.2,10.2-10.4l-0.3-3.8c-5,2.3-10.6,2.9-15.5,3.4c-6,0.8-12.2,0.9-18.2,0.2L228.7,215.7z"></path><path class="st1" d="M247.9,200.5h-3.3c-15.8,0.2-28.8-12.5-29-28.3c0,0,0,0,0,0c-0.1-9.1,2.5-26.3,2.5-26.3s13.2-4.8,23.6-8.7
		c17.4-6.6,22.1-16,22.1-16c0.3,4.9,2.1,13.9,4.1,18.3c1.9,4.3,7.8,11.9,7.8,11.9s0.5,14.1,0.6,20
		C276.4,187.3,263.8,200.3,247.9,200.5C247.9,200.5,247.9,200.5,247.9,200.5z"></path><path class="st2" d="M244.2,201.3c-16.1,0-29.2-13-29.4-29.1c-0.1-9,2.5-26.2,2.5-26.4c0-0.3,0.2-0.5,0.5-0.6
		c0.1-0.1,13.4-4.8,23.6-8.7c16.9-6.4,21.7-15.6,21.7-15.7c0.1-0.3,0.5-0.4,0.8-0.4c0.3,0.1,0.5,0.3,0.6,0.7
		c0.3,4.8,2.2,13.8,4,18.1c1.8,4.2,7.6,11.7,7.7,11.8c0.1,0.1,0.1,0.3,0.1,0.4c0,0.1,0.5,14.2,0.6,20.1
		c0.2,16.2-12.8,29.5-29.1,29.7h-3.3L244.2,201.3z M247.9,199.8L247.9,199.8c15.4-0.2,27.8-12.8,27.6-28.2
		c-0.1-5.4-0.5-17.9-0.6-19.8c-0.9-1.2-6-7.9-7.7-11.9s-3.4-11.3-4-16.4c-2.2,3.1-8.2,9.6-21.3,14.5c-9.2,3.5-20.9,7.7-23.2,8.5
		c-0.4,2.7-2.5,17.6-2.4,25.8c0.2,15.3,12.6,27.6,27.9,27.6h0.3L247.9,199.8z"></path><path class="st2" d="M244.4,171.5c-1.2,0-2.5-0.1-3.7-0.2c-0.6-0.1-1.1-0.4-1.4-0.9c-2.2-3.6,3.7-19.7,4.4-21.5
		c0.1-0.4,0.5-0.6,0.9-0.4c0,0,0,0,0,0c0.4,0.1,0.6,0.6,0.4,0.9c-2.5,6.7-5.9,18-4.5,20.3c0.1,0.1,0.2,0.2,0.3,0.2
		c2.7,0.3,5.4,0.2,8.1-0.1c0.4-0.1,0.7,0.2,0.8,0.6c0,0,0,0,0,0c0.1,0.4-0.2,0.8-0.6,0.8C247.6,171.4,246,171.5,244.4,171.5z"></path><ellipse class="st2" transform="matrix(0.9999 -1.099535e-02 1.099535e-02 0.9999 -1.6778 2.8573)" cx="259" cy="154" rx="2" ry="4.9"></ellipse><ellipse class="st2" transform="matrix(0.9999 -1.099535e-02 1.099535e-02 0.9999 -1.6725 2.57)" cx="232.9" cy="153.4" rx="2" ry="4.9"></ellipse><path class="st1" d="M264.8,218.5c0,0,13.5,1,14.3,4.5s-3.2,29.3-8,35.2s-25.6-16.6-25.6-16.6L264.8,218.5z"></path><path class="st2" d="M268.8,259.9c-7.4,0-23.2-17.1-23.9-17.8c-0.3-0.3-0.3-0.7,0-1l19.3-23.1c0.1-0.2,0.4-0.3,0.6-0.3
		c2.4,0.2,14.1,1.2,14.9,5.1s-3.2,29.7-8.2,35.8c-0.7,0.8-1.6,1.3-2.7,1.3L268.8,259.9z M246.4,241.6c4.8,5.2,17,17,22.5,16.8
		c0.6,0,1.2-0.3,1.6-0.7c4.6-5.7,8.6-31,7.9-34.6c-0.4-2-7.9-3.5-13.3-3.9L246.4,241.6z"></path><path class="st1" d="M226.1,217.6c0,0-13.6,0.3-14.5,3.8s1.8,29.4,6.4,35.5s26.4-15.3,26.4-15.3L226.1,217.6z"></path><path class="st2" d="M220.4,258.7h-0.4c-1,0-2-0.5-2.6-1.4c-4.7-6.4-7.4-32.5-6.4-36.1s12.8-4.3,15.2-4.3c0.2,0,0.4,0.1,0.6,0.3
		l18.2,24c0.3,0.3,0.2,0.7-0.1,1C244.2,242.8,227.9,258.7,220.4,258.7z M225.8,218.3c-5.4,0.2-12.9,1.3-13.4,3.3
		c-0.9,3.5,1.9,29,6.2,34.9c0.4,0.5,1,0.8,1.6,0.8c5.4,0.4,18.1-10.9,23.2-15.8L225.8,218.3z"></path><path class="st1" d="M230.2,176.9l32.6-0.4c0,0-5,17.2-17.4,15.5S230.2,176.9,230.2,176.9z"></path><path class="st2" d="M247.1,192.9c-0.6,0-1.2,0-1.8-0.1c-12.8-1.7-15.8-15.6-15.8-15.7c0-0.2,0-0.4,0.1-0.6
		c0.1-0.2,0.3-0.3,0.6-0.3l32.6-0.4l0,0c0.2,0,0.4,0.1,0.6,0.3c0.1,0.2,0.2,0.4,0.1,0.6C263.5,176.9,258.7,192.9,247.1,192.9z
		 M231.2,177.6c0.8,2.9,4.3,12.4,14.3,13.7s15.1-10.6,16.3-14.1L231.2,177.6z"></path><path class="st1" d="M274,145.9h6.2c4,0,7.3,3.3,7.3,7.3l0,0v25.4c0,4-3.3,7.3-7.3,7.3l0,0H274l0,0V145.9L274,145.9z"></path><path class="st2" d="M277.3,186.6H274c-0.4,0-0.7-0.3-0.7-0.7l0,0v-40c0-0.4,0.3-0.7,0.7-0.7h3.3c6,0,10.9,4.9,10.9,10.9v19.6
		C288.2,181.7,283.3,186.6,277.3,186.6z M274.8,185.2h2.6c5.2,0,9.5-4.2,9.5-9.5v-19.6c0-5.2-4.2-9.5-9.5-9.5h-2.6V185.2z"></path><path class="st1" d="M218.1,185.9h-6.2c-4,0-7.3-3.3-7.3-7.3v-25.4c0-4,3.3-7.3,7.3-7.3h6.2l0,0V185.9L218.1,185.9L218.1,185.9z"></path><path class="st2" d="M218.1,186.6h-3.3c-6,0-10.9-4.9-10.9-10.9v-19.6c0-6,4.9-10.9,10.9-10.9h3.3c0.4,0,0.7,0.3,0.7,0.7v40
		C218.8,186.3,218.4,186.6,218.1,186.6z M214.8,146.6c-5.2,0-9.5,4.2-9.5,9.5v19.6c0,5.2,4.2,9.5,9.5,9.5h2.6v-38.5L214.8,146.6z"></path><path class="st2" d="M282.5,152.6c-1.2,0-2.1-0.9-2.1-2.1v0v-18.9c0-17.4-14.9-31.5-33.3-31.5s-33.3,14.1-33.3,31.5v18.9
		c0,1.2-0.9,2.1-2.1,2.1c-1.2,0-2.1-0.9-2.1-2.1c0,0,0,0,0,0v-18.9c0-19.7,16.8-35.7,37.5-35.7s37.5,16,37.5,35.7v18.9
		C284.6,151.7,283.7,152.6,282.5,152.6L282.5,152.6z"></path><path class="st2" d="M207.9,184c-0.4,0-0.7-0.3-0.7-0.7l0,0v-27.2c0-0.4,0.3-0.7,0.7-0.7l0,0c0.4,0,0.7,0.3,0.7,0.7v27.1
		C208.7,183.6,208.4,184,207.9,184C208,184,207.9,184,207.9,184z"></path><path class="st2" d="M282.5,184c-0.4,0-0.7-0.3-0.7-0.7l0,0v-27.2c0-0.4,0.3-0.7,0.7-0.7l0,0c0.4,0,0.7,0.3,0.7,0.7v27.1
		C283.3,183.6,283,184,282.5,184C282.6,184,282.6,184,282.5,184z"></path><path class="st2" d="M174.6,353.8c-2.3-2.9-5.2-5.2-8.5-6.8c-8.3-3.7-18.2,0.1-25.4,5.6c-3.4,2.6-6.6,5.8-8,9.8
		c-2.3,6.8,1,14.3,5.3,20.1c1.7,2.5,3.9,4.7,6.5,6.3c3.4,1.6,7.3,2,11,0.9c3.6-1,7-2.6,10.2-4.7c4.9-3.1,14.5-8.1,16.8-13.7
		C184.8,365.8,178,357.6,174.6,353.8z"></path><path class="st2" d="M151.1,390.9c-2.4,0-4.7-0.5-6.8-1.6c-2.7-1.6-5-3.8-6.8-6.5c-3.9-5.3-7.9-13.1-5.4-20.7
		c1.2-3.5,3.8-6.8,8.2-10.1c8.9-6.9,18.7-9,26.1-5.7c3.4,1.7,6.4,4,8.8,7l0,0c4.5,5.2,10.2,12.7,8,18.2c-2.1,5-9.4,9.4-14.7,12.6
		l-2.4,1.5c-3.2,2.1-6.7,3.8-10.4,4.8C154.2,390.7,152.6,390.9,151.1,390.9z M158.9,346.2c-5.6,0-11.9,2.4-17.8,6.9
		c-4.2,3.2-6.6,6.2-7.7,9.5c-2.4,7,1.5,14.4,5.2,19.4c1.6,2.5,3.8,4.5,6.3,6c3.3,1.6,7,1.9,10.5,0.9c3.6-1,6.9-2.6,10-4.6
		c0.7-0.5,1.5-0.9,2.4-1.5c5.1-3.1,12.2-7.3,14.1-11.9c2.2-5.3-5.3-13.9-7.7-16.7c-2.9-3.3-5.5-5.4-8.3-6.6
		C163.7,346.7,161.3,346.2,158.9,346.2L158.9,346.2z"></path><path class="st2" d="M317.9,353.8c2.3-2.9,5.2-5.2,8.5-6.8c8.3-3.7,18.2,0.1,25.4,5.6c3.4,2.6,6.6,5.8,8,9.8
		c2.3,6.8-1,14.3-5.3,20.1c-1.7,2.5-3.9,4.7-6.5,6.3c-3.4,1.6-7.3,2-11,0.9c-3.6-1-7-2.6-10.2-4.7c-4.9-3.1-14.5-8.1-16.8-13.7
		C307.8,365.8,314.6,357.6,317.9,353.8z"></path><path class="st2" d="M341.5,390.9c-1.6,0-3.1-0.2-4.6-0.6c-3.7-1.1-7.2-2.7-10.4-4.8l-2.4-1.5c-5.3-3.2-12.6-7.5-14.7-12.6
		c-2.3-5.5,3.5-13,8-18.2l0,0c2.4-3,5.4-5.3,8.8-7c7.4-3.3,17.2-1.2,26.1,5.7c4.4,3.4,7,6.6,8.2,10.1c2.6,7.6-1.5,15.4-5.4,20.7
		c-1.7,2.6-4.1,4.8-6.8,6.5C346.2,390.4,343.8,391,341.5,390.9z M333.6,346.2c-2.4,0-4.7,0.5-6.9,1.4c-3.2,1.6-6,3.9-8.3,6.6l0,0
		c-2.5,2.8-9.9,11.4-7.7,16.7c1.9,4.6,9,8.8,14.1,11.9c0.9,0.5,1.7,1,2.4,1.5c3.1,2.1,6.4,3.6,10,4.6c3.5,1,7.2,0.7,10.5-0.9
		c2.5-1.5,4.7-3.6,6.3-6c3.7-5,7.5-12.5,5.2-19.4c-1.1-3.3-3.6-6.3-7.7-9.5C345.5,348.6,339.2,346.2,333.6,346.2z M317.9,353.8
		L317.9,353.8z"></path><path class="st2" d="M217.2,202.1c-1.4,0.1-2.7-0.3-3.9-1c-5.8-4.2-2.4-20.5-2.2-21.2c0.1-0.4,0.5-0.6,0.8-0.5
		c0.4,0.1,0.6,0.5,0.5,0.8c0,0,0,0,0,0c-1,4.5-2.5,16.7,1.7,19.8s17.8-3.6,22.6-6.5c0.3-0.2,0.7-0.1,1,0.2c0,0,0,0,0,0.1
		c0.2,0.3,0.1,0.7-0.2,0.9c0,0,0,0,0,0C236.9,195.1,224.6,202.1,217.2,202.1z"></path><path class="st2" d="M236.4,191.5l10.1-6.5c1-0.6,2.3-0.4,3,0.6l0.9,1.4c0.6,1,0.4,2.3-0.6,3l-10.1,6.5c-1,0.6-2.3,0.4-3-0.6
		l-0.9-1.4C235.1,193.5,235.4,192.1,236.4,191.5z"></path><path class="st2" d="M238.7,197.2c-0.3,0-0.5,0-0.8-0.1c-2-0.4-3.3-2.4-2.8-4.4c0.2-1,0.8-1.8,1.6-2.4l8.7-5.6
		c1.7-1.1,4-0.6,5.1,1.1c1.1,1.7,0.6,4-1.1,5.1l0,0l-8.7,5.6C240.1,197,239.4,197.3,238.7,197.2z M247.4,185.7
		c-0.4,0-0.9,0.1-1.2,0.4l-8.7,5.6c-1.1,0.7-1.4,2.1-0.7,3.2c0.3,0.5,0.8,0.9,1.4,1c0.6,0.1,1.2,0,1.7-0.3l8.7-5.6
		c0.5-0.3,0.9-0.9,1-1.4c0.3-1.2-0.5-2.5-1.7-2.7c0,0,0,0,0,0C247.7,185.7,247.6,185.7,247.4,185.7L247.4,185.7z M249,190.5
		L249,190.5z"></path><circle class="st2" cx="256.1" cy="261.6" r="2.5"></circle><path class="st2" d="M183,298.8h-0.1c-0.4-0.1-0.6-0.5-0.6-0.9c0.1-0.5,0.5-2.6,1.1-5.6c1.9-9.5,5.5-27.1,6.9-34.5
		c0.1-0.4,0.4-0.7,0.8-0.6c0.4,0.1,0.7,0.4,0.6,0.8l0,0c-1.4,7.5-4.9,25.1-6.9,34.5c-0.6,3-1,5.1-1.1,5.6
		C183.6,298.6,183.3,298.8,183,298.8z"></path><circle class="st2" cx="213.4" cy="291.8" r="15.7"></circle><path class="st1" d="M203.4,284.4l0.4-0.9l0.3-0.5c0.1-0.2,0.3-0.3,0.5-0.2c0.2,0.1,0.5,0.1,0.8,0.2c0.1,0,0.3,0.1,0.4,0.1
		c0.1,0,0.2,0,0.3,0c0.3-0.2,0.6-0.5,1-0.8c0.1-0.1,0.2-0.3,0.1-0.4l-0.1-1c0-0.1,0-0.2,0-0.4c0-0.1,0.1-0.2,0.1-0.2
		c0.5-0.3,1.1-0.4,1.6-0.5c0.2,0,0.3,0.1,0.4,0.2c0.2,0.3,0.3,0.6,0.5,0.9c0.1,0.2,0.3,0.4,0.6,0.4c0.3,0,0.7,0,1,0.1
		c0.1,0,0.3,0,0.3-0.1c0.1-0.2,0.3-0.3,0.4-0.5l0.4-0.4c0.1-0.1,0.3-0.2,0.5-0.1c0.4,0.2,0.9,0.5,1.3,0.7c0.2,0.1,0.3,0.3,0.2,0.5
		c-0.1,0.3-0.1,0.5-0.2,0.8l-0.1,0.4c0,0.2,0,0.3,0.1,0.5c0.2,0.3,0.4,0.5,0.6,0.8c0.1,0.2,0.3,0.3,0.5,0.2l1-0.1
		c0.2-0.1,0.5,0.1,0.5,0.3c0.1,0.4,0.3,0.9,0.4,1.3c0.1,0.2,0,0.5-0.3,0.6c0,0,0,0,0,0l-0.6,0.3c-0.1,0.1-0.3,0.2-0.4,0.2
		c-0.1,0.1-0.2,0.2-0.2,0.3c0,0.4-0.1,0.7-0.1,1.1c0,0.2,0.1,0.4,0.2,0.5l0.5,0.4c0.1,0.1,0.2,0.2,0.3,0.3c0.2,0.1,0.2,0.4,0.1,0.5
		c-0.2,0.4-0.4,0.8-0.6,1.2c0,0.1-0.1,0.1-0.1,0.2c-0.1,0.1-0.3,0.2-0.4,0.1l-0.9-0.3h-0.1c-0.3-0.1-0.5-0.1-0.7,0.1
		c-0.2,0.2-0.4,0.3-0.6,0.5c-0.2,0.2-0.3,0.4-0.2,0.6c0,0.3,0.1,0.6,0.1,0.9c0.1,0.2-0.1,0.5-0.3,0.5c0,0,0,0-0.1,0
		c-0.4,0.1-0.9,0.3-1.3,0.4c-0.2,0.1-0.4,0-0.5-0.2l-0.4-0.7c-0.3-0.5-0.4-0.6-0.9-0.6l-0.7,0c-0.2,0-0.4,0.1-0.6,0.2
		c-0.2,0.2-0.3,0.4-0.5,0.6c-0.1,0.1-0.2,0.2-0.3,0.3c-0.1,0.1-0.3,0.1-0.4,0l-1.3-0.7c-0.1,0-0.1-0.1-0.2-0.1
		c-0.1-0.1-0.2-0.3-0.1-0.4c0.1-0.3,0.2-0.6,0.3-0.9l0.1-0.3c0-0.2,0-0.3-0.1-0.4l-0.6-0.8c-0.1-0.2-0.3-0.2-0.5-0.2l-0.9,0.1l0,0
		c-0.4,0-0.5,0-0.6-0.4s-0.3-0.9-0.4-1.3c-0.1-0.2,0-0.4,0.2-0.5c0,0,0,0,0,0c0.3-0.1,0.5-0.3,0.8-0.4c0.3-0.1,0.4-0.4,0.4-0.7
		c0-0.3,0.1-0.6,0.1-1c0-0.1,0-0.3-0.1-0.4l-0.7-0.6C203.5,284.8,203.4,284.7,203.4,284.4L203.4,284.4z M213.3,287.5
		c0.2-1.7-0.9-3.2-2.6-3.5c0,0,0,0-0.1,0c-1.6-0.2-3.1,1-3.4,2.6c-0.2,1.7,1,3.2,2.6,3.4C211.5,290.2,213,289.1,213.3,287.5
		L213.3,287.5z"></path><path class="st1" d="M211.4,297.5l0.3-0.8l0.1-0.4c0.1-0.2,0.2-0.3,0.4-0.2c0.2,0,0.4,0.1,0.6,0.1c0.1,0,0.2,0,0.3,0
		c0.1,0,0.2,0,0.2-0.1c0.2-0.2,0.5-0.5,0.7-0.7c0.1-0.1,0.1-0.2,0.1-0.3c-0.1-0.2-0.1-0.5-0.2-0.8c0-0.1,0-0.2,0-0.3
		c0-0.1,0-0.1,0.1-0.2c0.4-0.2,0.8-0.4,1.2-0.6c0.1,0,0.3,0,0.4,0.1c0.1,0.2,0.3,0.4,0.5,0.6c0.1,0.2,0.3,0.3,0.5,0.2h0.8
		c0.1,0,0.2-0.1,0.2-0.1l0.3-0.4l0.2-0.4c0.1-0.1,0.2-0.2,0.4-0.1l1.1,0.4c0.1,0.1,0.2,0.2,0.2,0.4c0,0.2-0.1,0.4-0.1,0.6
		s0,0.2,0,0.3c0,0.1,0,0.3,0.1,0.4l0.6,0.6c0.1,0.1,0.3,0.2,0.4,0.1l0.8-0.2c0.2-0.1,0.4,0,0.4,0.2c0.2,0.3,0.3,0.6,0.4,1
		c0.1,0.2,0.1,0.4-0.1,0.5c0,0,0,0,0,0l-0.4,0.3c-0.1,0.1-0.2,0.1-0.3,0.2c-0.1,0.1-0.1,0.2-0.1,0.3v0.8c0,0.2,0.1,0.3,0.2,0.4
		l0.5,0.3c0.1,0.1,0.2,0.1,0.3,0.2c0.1,0.1,0.2,0.3,0.1,0.4c-0.1,0.3-0.2,0.7-0.4,1c0,0,0,0.1-0.1,0.1c-0.1,0.1-0.2,0.2-0.3,0.1
		l-0.7-0.1h-0.1c-0.2-0.1-0.4,0-0.6,0.2c-0.1,0.2-0.3,0.3-0.4,0.5c-0.1,0.1-0.2,0.3-0.1,0.5c0.1,0.2,0.1,0.5,0.2,0.7s0,0.4-0.2,0.5
		s-0.7,0.3-1,0.5c-0.2,0.1-0.4,0-0.4-0.1c-0.1-0.2-0.2-0.3-0.4-0.5c-0.3-0.4-0.3-0.4-0.8-0.4h-0.5c-0.2,0-0.3,0.1-0.4,0.2l-0.3,0.5
		c-0.1,0.1-0.1,0.2-0.2,0.2c-0.1,0.1-0.2,0.1-0.3,0.1l-1.1-0.4c0,0-0.1,0-0.1-0.1c-0.1-0.1-0.2-0.2-0.1-0.3l0.1-0.7
		c0-0.1,0-0.2,0-0.2c0-0.1,0-0.2-0.1-0.3l-0.6-0.5c-0.1-0.1-0.3-0.1-0.4-0.1l-0.7,0.2l0,0c-0.3,0.1-0.4,0-0.6-0.3s-0.3-0.6-0.4-1
		c-0.1-0.2,0-0.4,0.1-0.4c0,0,0,0,0,0l0.6-0.4c0.2-0.1,0.3-0.3,0.3-0.6v-0.8c0-0.1-0.1-0.2-0.1-0.3l-0.6-0.4
		C211.7,297.8,211.6,297.7,211.4,297.5L211.4,297.5z M219.5,298.9c0-1.3-1.1-2.4-2.4-2.4c0,0,0,0,0,0c-1.3,0-2.4,1.1-2.4,2.4
		c0,1.3,1.1,2.4,2.4,2.4C218.4,301.4,219.5,300.3,219.5,298.9C219.5,299,219.5,299,219.5,298.9L219.5,298.9z"></path><rect class="st1" x="261.9" y="289" width="36.6" height="7.8"></rect></g><g id="Keyboard"><polygon class="st1" points="146.6,385.1 342.7,385.1 376.6,418.1 112.6,418.1 	"></polygon><path class="st2" d="M376.6,418.9h-264c-0.4,0-0.7-0.3-0.7-0.7c0-0.2,0.1-0.4,0.2-0.5l34-33c0.1-0.1,0.3-0.2,0.5-0.2h196
		c0.2,0,0.4,0.1,0.5,0.2l34,33c0.3,0.3,0.3,0.7,0,1C377.1,418.8,376.9,418.9,376.6,418.9L376.6,418.9z M114.4,417.4h260.5
		l-32.5-31.6H146.9L114.4,417.4z"></path><polygon class="st3" points="269.4,391.9 200.6,391.9 202.2,388.8 268.3,388.8 	"></polygon><polygon class="st3" points="284.6,391.9 275,391.9 273.7,388.8 282.9,388.8 	"></polygon><polygon class="st3" points="299,391.9 289.4,391.9 287.5,388.8 296.8,388.8 	"></polygon><polygon class="st3" points="327.6,391.9 303.8,391.9 301.4,388.8 324.3,388.8 	"></polygon><polygon class="st3" points="327.9,391.9 318.2,391.9 315.3,388.8 324.5,388.8 	"></polygon><polygon class="st3" points="166,391.9 156.4,391.9 159.7,388.8 168.9,388.8 	"></polygon><polygon class="st3" points="180.4,391.9 170.8,391.9 173.5,388.8 182.8,388.8 	"></polygon><polygon class="st3" points="194.8,391.9 185.2,391.9 187.4,388.8 196.7,388.8 	"></polygon><polygon class="st3" points="185.1,397.8 150.1,397.8 153.9,394.2 187.5,394.2 	"></polygon><polygon class="st3" points="200.2,397.8 189.9,397.8 192.1,394.2 201.9,394.2 	"></polygon><polygon class="st3" points="216.2,397.8 205.9,397.8 207.4,394.2 217.3,394.2 	"></polygon><polygon class="st3" points="232.2,397.8 221.9,397.8 222.7,394.2 232.6,394.2 	"></polygon><polygon class="st3" points="248.2,397.8 237.9,397.8 238.1,394.2 248,394.2 	"></polygon><polygon class="st3" points="264.2,397.8 253.9,397.8 253.4,394.2 263.3,394.2 	"></polygon><polygon class="st3" points="280.2,397.8 269.9,397.8 268.8,394.2 278.7,394.2 	"></polygon><polygon class="st3" points="296.2,397.8 285.9,397.8 284.1,394.2 294,394.2 	"></polygon><polygon class="st3" points="312.3,397.8 301.9,397.8 299.5,394.2 309.4,394.2 	"></polygon><polygon class="st3" points="172.8,404.6 161.7,404.6 165.3,400.4 175.9,400.4 	"></polygon><polygon class="st3" points="190.1,404.6 179,404.6 181.8,400.4 192.4,400.4 	"></polygon><polygon class="st3" points="207.4,404.6 196.2,404.6 198.3,400.4 208.9,400.4 	"></polygon><polygon class="st3" points="224.6,404.6 213.5,404.6 214.8,400.4 225.4,400.4 	"></polygon><polygon class="st3" points="241.9,404.6 230.8,404.6 231.3,400.4 241.9,400.4 	"></polygon><polygon class="st3" points="259.2,404.6 248.1,404.6 247.8,400.4 258.4,400.4 	"></polygon><polygon class="st3" points="276.5,404.6 265.3,404.6 264.3,400.4 274.9,400.4 	"></polygon><polygon class="st3" points="293.8,404.6 282.6,404.6 280.8,400.4 291.4,400.4 	"></polygon><polygon class="st3" points="311,404.6 299.9,404.6 297.3,400.4 307.9,400.4 	"></polygon><polygon class="st3" points="178.3,412.5 166.2,412.5 169.9,407.7 181.4,407.7 	"></polygon><polygon class="st3" points="197.1,412.5 184.9,412.5 187.7,407.7 199.2,407.7 	"></polygon><polygon class="st3" points="215.8,412.5 203.7,412.5 205.6,407.7 217.1,407.7 	"></polygon><polygon class="st3" points="234.6,412.5 222.5,412.5 223.4,407.7 234.9,407.7 	"></polygon><polygon class="st3" points="253.3,412.5 241.2,412.5 241.3,407.7 252.8,407.7 	"></polygon><polygon class="st3" points="272.1,412.5 260,412.5 259.1,407.7 270.6,407.7 	"></polygon><polygon class="st3" points="290.8,412.5 278.7,412.5 277,407.7 288.5,407.7 	"></polygon><polygon class="st3" points="309.6,412.5 297.5,412.5 294.8,407.7 306.3,407.7 	"></polygon><polygon class="st3" points="328.3,412.5 316.2,412.5 312.7,407.7 324.2,407.7 	"></polygon><polygon class="st3" points="348.7,412.5 333.4,412.5 329,407.7 343.6,407.7 	"></polygon><polygon class="st3" points="341.2,404.6 317.1,404.6 313.8,400.4 336.8,400.4 	"></polygon><polygon class="st3" points="333.9,397.8 317.1,397.8 314,394.2 330.1,394.2 	"></polygon><polygon class="st3" points="153.9,404.6 142.8,404.6 147.2,400.4 157.9,400.4 	"></polygon><polygon class="st3" points="159.4,412.5 134.3,412.5 139.5,407.7 163.4,407.7 	"></polygon><polygon class="st1" points="374.7,427 114.6,427 112.6,418.1 376.6,418.1 	"></polygon><path class="st2" d="M374.7,427.7h-260c-0.3,0-0.6-0.2-0.7-0.6l-2-8.8c-0.1-0.2,0-0.4,0.1-0.6c0.1-0.2,0.3-0.3,0.6-0.3h264
		c0.4,0,0.7,0.3,0.7,0.7c0,0,0,0.1,0,0.1l-2,8.8C375.3,427.5,375,427.7,374.7,427.7z M115.2,426.2h258.9l1.7-7.4H113.6L115.2,426.2z
		"></path></g><g id="Hands"><path class="st1" d="M190.9,379.8c-1.7,4-4.5,7.4-8,10c-7,5.1-12.9,0.5-20.3-0.7c0,0-9.9-1.6-16,0c-3.5,1-6.1-4.2-7.3-6.6
		c-2.2-3.9-2.6-8.6-1.2-12.8c2.7-8.1,11.4-8.1,18.7-9.2c5.4-0.8,12.3,1.4,12.3,1.4s-7.3-11.6-5.4-13.5s9.6-2.2,12.4,0.5
		c3.8,3.8,3.5,10.6,5.8,15.4c1.9-0.2,6.6-2,8.5-1.6c2.4,0.5,4.9,2.9,6.6,4.4c4.1,3.6,7.4,8,9.7,13c0.9,1.6,1.3,3.3,1.3,5.1
		c0,1.8-1.2,3.4-3,4c-1.7,0.4-3.4-0.7-4.8-1.8c-3.3-2.7-6.2-6-8.4-9.7C191.5,378.2,191.2,379,190.9,379.8z"></path><path class="st2" d="M176,392.8c-2.7-0.1-5.3-0.7-7.8-1.6c-1.9-0.6-3.8-1.1-5.8-1.5c-0.4-0.1-9.9-1.6-15.7,0
		c-3.9,1-6.5-3.9-7.9-6.5l-0.2-0.4c-2.3-4.1-2.7-9-1.2-13.4c2.5-7.5,9.9-8.5,16.5-9.3c0.9-0.1,1.9-0.2,2.8-0.4
		c3.8-0.6,8.3,0.3,10.8,0.9c-2.5-4.1-6.1-11-4.3-12.8c1.3-1.3,4.2-1.7,6.4-1.7c1.4,0,5,0.3,7,2.2c2.4,2.5,3.3,6,4.1,9.4
		c0.4,1.9,1,3.8,1.7,5.7c0.6-0.1,1.5-0.4,2.3-0.6c2.2-0.6,4.6-1.2,5.9-0.9c2.4,0.5,4.8,2.6,6.6,4.2l0.4,0.4
		c4.2,3.7,7.5,8.2,9.9,13.3c0.9,1.7,1.4,3.6,1.3,5.5c-0.1,1.9-1.4,4.1-3.6,4.6s-4.1-0.9-5.4-2c-3-2.5-5.6-5.4-7.8-8.6l-0.4,1l0,0
		c-1.8,4.1-4.6,7.6-8.2,10.3C181.2,391.9,178.6,392.8,176,392.8z M153.4,387.5c3.1,0,6.2,0.3,9.2,0.8c2,0.4,4,0.9,5.9,1.5
		c4.9,1.5,9.1,2.8,13.9-0.7c3.4-2.5,6.1-5.8,7.8-9.7l0,0c0.3-0.7,0.6-1.5,0.8-2.2c0.1-0.4,0.5-0.6,0.9-0.4c0.2,0.1,0.3,0.2,0.4,0.3
		c2.2,3.6,5,6.8,8.3,9.5c1.2,1,2.7,2,4.2,1.7c1.4-0.5,2.4-1.8,2.4-3.3c0-1.7-0.4-3.3-1.2-4.7c-2.2-4.9-5.5-9.2-9.5-12.8l-0.4-0.4
		c-1.7-1.5-3.9-3.4-5.9-3.9c-1-0.2-3.3,0.4-5.2,0.9c-1,0.3-2,0.5-3.1,0.7c-0.3,0-0.6-0.1-0.7-0.4c-0.9-2.1-1.6-4.2-2-6.5
		c-0.8-3.4-1.5-6.6-3.7-8.7c-1.1-1.1-3.4-1.8-6-1.8c-2.4,0-4.6,0.5-5.4,1.3s1.7,6.7,5.5,12.6c0.2,0.3,0.1,0.8-0.2,1
		c-0.2,0.1-0.4,0.1-0.6,0.1c-0.1,0-6.8-2.1-11.9-1.4c-0.9,0.1-1.9,0.3-2.9,0.4c-6.4,0.8-13,1.7-15.3,8.4c-1.4,4.1-1,8.5,1.1,12.2
		l0.2,0.4c1.2,2.3,3.5,6.6,6.3,5.8C148.7,387.7,151.1,387.5,153.4,387.5L153.4,387.5z"></path><path class="st1" d="M162.7,359.1c0,0,1.1,29.5-0.2,32.7s-5.7,3.3-7.6,1.9s-3.3-16.2-3.3-16.2s-0.8,13.6-1.8,15.6
		c-2.1,3.9-7.4,3.8-8.1-9.5c0,0,0,10.4-3.4,10.4s-3.8-2.8-4.1-7.4s-1-12.5,4.2-19.1C143.3,360.9,161,358.3,162.7,359.1z"></path><path class="st2" d="M146.8,396c-0.2,0-0.5,0-0.7-0.1c-1.2-0.3-3.1-1.5-4.3-6.1c-0.5,2.5-1.6,4.8-3.5,4.8c-4.2,0-4.5-3.6-4.9-8.1
		c-0.4-4.8-1-12.8,4.3-19.6c5-6.4,22.9-9.6,25.2-8.4c0.2,0.1,0.4,0.4,0.4,0.6c0.1,3,1.1,29.8-0.3,33c-0.7,1.5-2,2.6-3.6,3
		c-1.7,0.5-3.6,0.2-5.1-0.8c-1.1-0.8-2-5.1-2.7-9.3c-0.3,3.6-0.8,7.4-1.3,8.4C149.8,394.9,148.4,395.9,146.8,396z M141.7,382.8
		c0.4,0,0.7,0.3,0.7,0.7c0.4,7.6,2.3,10.7,4,11c1,0.2,2-0.5,2.7-1.8s1.4-10.1,1.7-15.3c0-0.4,0.3-0.7,0.7-0.7c0.4,0,0.7,0.3,0.7,0.7
		c0.7,7,2,15,3,15.7c1.1,0.7,2.5,0.9,3.8,0.5c1.2-0.3,2.1-1.1,2.6-2.1c1-2.2,0.7-20,0.2-31.8c-2.9-0.2-18.4,2.1-23,8.1
		c-4.9,6.4-4.4,14-4,18.6c0.4,5.1,0.8,6.9,3.4,6.9c1.8,0,2.6-5.8,2.6-9.7C141.1,383.1,141.4,382.8,141.7,382.8
		C141.8,382.8,141.8,382.8,141.7,382.8L141.7,382.8z"></path><path class="st2" d="M168.2,385.8c-0.1,0-0.1,0-0.2,0c-0.4-0.1-0.6-0.5-0.5-0.8c0,0,0,0,0,0c1.4-6.5,6.1-11.7,12.4-13.8
		c0.4-0.1,0.8,0.1,0.9,0.5c0.1,0.4-0.1,0.8-0.5,0.9c-5.8,2-10.1,6.8-11.4,12.8C168.8,385.6,168.5,385.8,168.2,385.8z"></path><path class="st1" d="M171.9,346.9c-5.2-1.8-8.5-1.4-11.5,2.3c-1.1,1.5-1.9,3.1-2.3,4.9c-1.7,5.4-2.4,11.1-2.2,16.8
		c0,1.1,0.2,2.1,0.7,3.1c1.1,1.5,3.1,2.2,4.9,1.7c1.8-0.6,3.3-1.7,4.4-3.3c3.6-4.5,4.8-10.3,5.9-15.9"></path><path class="st2" d="M160.1,376.6c-1.7,0.1-3.3-0.8-4.2-2.2c-0.5-1.1-0.8-2.3-0.8-3.5c-0.2-5.8,0.5-11.5,2.2-17
		c0.5-1.9,1.3-3.6,2.5-5.1c3.5-4.3,7.5-4.1,12.3-2.5c0.4,0.1,0.6,0.5,0.5,0.9c0,0,0,0,0,0c-0.1,0.4-0.5,0.6-0.9,0.5c0,0,0,0,0,0
		c-5.3-1.8-8.1-1.2-10.7,2.1c-1,1.4-1.8,3-2.2,4.7c-1.6,5.4-2.4,10.9-2.2,16.5c0,1,0.2,1.9,0.6,2.8c0.9,1.3,2.6,1.8,4.1,1.3
		c1.6-0.5,3-1.6,4-3c3.5-4.5,4.7-10.4,5.7-15.6c0.1-0.4,0.5-0.6,0.9-0.6c0.4,0.1,0.6,0.5,0.6,0.9c-1.1,5.4-2.3,11.5-6,16.2
		c-1.2,1.7-2.8,2.9-4.8,3.5C161.1,376.5,160.6,376.6,160.1,376.6z"></path><path class="st1" d="M301.6,379.8c1.7,4,4.5,7.4,8,10c7,5.1,12.9,0.5,20.3-0.7c0,0,9.9-1.6,16,0c3.5,1,6-4.2,7.3-6.6
		c2.2-3.9,2.6-8.6,1.2-12.8c-2.7-8.1-11.4-8.1-18.7-9.2c-5.4-0.8-12.3,1.4-12.3,1.4s7.3-11.6,5.4-13.5s-9.6-2.2-12.4,0.5
		c-3.8,3.8-3.5,10.6-5.8,15.4c-1.9-0.2-6.6-2-8.5-1.6c-2.4,0.5-4.9,2.9-6.6,4.4c-4.1,3.6-7.4,8-9.7,13c-0.8,1.6-1.3,3.3-1.3,5.1
		c0,1.8,1.2,3.4,3,4c1.7,0.4,3.4-0.7,4.8-1.8c3.3-2.7,6.2-6,8.5-9.7C301,378.3,301.3,379,301.6,379.8z"></path><path class="st2" d="M316.5,392.8c-2.6,0-5.2-0.9-7.3-2.5c-3.6-2.7-6.4-6.2-8.2-10.3l0,0l-0.4-1c-2.2,3.2-4.8,6.1-7.8,8.6
		c-1.3,1.1-3.3,2.4-5.4,2s-3.4-2.7-3.6-4.6c0-1.9,0.4-3.8,1.3-5.5c2.3-5,5.7-9.5,9.8-13.2l0.4-0.4c1.8-1.5,4.2-3.7,6.5-4.2
		c1.4-0.3,3.7,0.3,5.9,0.9c0.9,0.2,1.7,0.5,2.3,0.6c0.7-1.8,1.3-3.7,1.7-5.7c0.8-3.4,1.6-7,4.1-9.4c3-2.9,11.1-2.9,13.4-0.5
		c1.8,1.9-1.8,8.7-4.3,12.8c2.5-0.6,7-1.5,10.8-0.9c0.9,0.1,1.9,0.3,2.8,0.4c6.5,0.9,13.9,1.8,16.5,9.3c1.5,4.4,1.1,9.3-1.2,13.4
		l-0.2,0.4c-1.4,2.6-4.1,7.6-7.9,6.5c-5.8-1.6-15.6,0-15.7,0c-2,0.4-3.9,0.9-5.8,1.5C321.8,392.1,319.2,392.6,316.5,392.8z
		 M300.8,376.7L300.8,376.7c0.4,0,0.6,0.2,0.7,0.5c0.2,0.8,0.5,1.5,0.8,2.2l0,0c1.7,3.9,4.4,7.2,7.8,9.7c4.8,3.5,9,2.2,13.9,0.7
		c2-0.6,4-1.2,6-1.5c0.4-0.1,10.1-1.7,16.3,0c2.8,0.8,5-3.5,6.3-5.8l0.2-0.4c2.1-3.7,2.5-8.2,1.1-12.2c-2.2-6.7-8.9-7.5-15.3-8.4
		c-1-0.1-1.9-0.2-2.9-0.4c-5.1-0.8-11.9,1.3-11.9,1.4c-0.4,0.1-0.8-0.1-0.9-0.5c-0.1-0.2,0-0.4,0.1-0.6c3.7-5.9,6.3-11.8,5.5-12.6
		c-1.6-1.6-8.9-1.9-11.4,0.6c-2.1,2.1-2.9,5.3-3.7,8.7c-0.4,2.2-1.1,4.4-2,6.5c-0.1,0.3-0.4,0.4-0.7,0.4c-1-0.2-2.1-0.4-3.1-0.7
		c-1.9-0.5-4.2-1.1-5.2-0.9c-2,0.5-4.3,2.4-5.9,3.9l-0.4,0.4c-4,3.6-7.3,7.9-9.5,12.8c-0.8,1.5-1.2,3.1-1.2,4.7c0,1.5,1,2.8,2.4,3.3
		c1.5,0.3,3-0.7,4.2-1.7c3.3-2.7,6.1-5.9,8.3-9.5C300.4,376.9,300.6,376.7,300.8,376.7z"></path><path class="st1" d="M329.9,359.1c0,0-1.1,29.5,0.2,32.7s5.7,3.3,7.6,1.9s3.3-16.2,3.3-16.2s0.8,13.6,1.8,15.6
		c2.1,3.9,7.4,3.8,8.1-9.5c0,0,0,10.4,3.4,10.4s3.8-2.8,4.1-7.4s1-12.5-4.2-19.1C349.2,360.9,331.5,358.3,329.9,359.1z"></path><path class="st2" d="M345.7,396c-1.6-0.1-3-1.1-3.6-2.6c-0.5-1-1-4.8-1.3-8.4c-0.6,4.2-1.5,8.5-2.7,9.3c-1.5,1-3.4,1.2-5.1,0.7
		c-1.6-0.4-2.9-1.5-3.6-3c-1.4-3.2-0.4-30-0.3-33c0-0.3,0.2-0.5,0.4-0.6c2.3-1.2,20.2,2,25.2,8.4c5.3,6.8,4.7,14.8,4.3,19.5
		c-0.3,4.6-0.6,8.2-4.9,8.2c-1.9,0-3-2.3-3.5-4.8c-1.1,4.6-3,5.8-4.3,6.1C346.2,395.9,346,396,345.7,396z M340.9,376.7L340.9,376.7
		c0.4,0,0.7,0.3,0.7,0.7c0.3,5.2,1,14,1.7,15.3s1.8,2,2.7,1.8c1.7-0.4,3.6-3.5,4-11c0-0.4,0.3-0.7,0.7-0.7l0,0
		c0.4,0,0.7,0.3,0.7,0.7c0,0,0,0,0,0c0,3.9,0.8,9.7,2.6,9.7c2.7,0,3-1.8,3.4-6.8c0.4-4.6,0.9-12.3-4-18.6c-4.6-5.9-20-8.3-23-8.1
		c-0.5,11.8-0.8,29.6,0.2,31.8c0.5,1.1,1.5,1.9,2.6,2.1c1.3,0.4,2.7,0.2,3.8-0.5c1-0.7,2.3-8.7,3-15.7
		C340.3,377,340.6,376.7,340.9,376.7L340.9,376.7z"></path><path class="st2" d="M324.3,385.8c-0.3,0-0.6-0.2-0.7-0.5c-1.3-5.9-5.6-10.8-11.4-12.8c-0.4-0.1-0.6-0.5-0.5-0.9
		c0.1-0.4,0.5-0.6,0.9-0.5c6.3,2.1,10.9,7.3,12.3,13.8c0.1,0.4-0.1,0.8-0.5,0.9c0,0,0,0,0,0C324.4,385.8,324.4,385.8,324.3,385.8z"></path><path class="st1" d="M320.6,346.9c5.2-1.8,8.5-1.4,11.5,2.3c1.1,1.5,1.9,3.1,2.3,4.9c1.7,5.4,2.4,11.1,2.2,16.8
		c0,1.1-0.2,2.1-0.7,3.1c-1.1,1.5-3.1,2.2-4.9,1.7c-1.8-0.6-3.3-1.7-4.4-3.3c-3.5-4.5-4.8-10.3-5.9-15.9"></path><path class="st2" d="M332.4,376.6c-0.5,0-1-0.1-1.5-0.2c-1.9-0.6-3.6-1.8-4.8-3.5c-3.7-4.7-4.9-10.9-6-16.2
		c-0.1-0.4,0.2-0.8,0.6-0.9s0.8,0.2,0.9,0.6c1,5.2,2.2,11.2,5.7,15.6c1,1.4,2.4,2.5,4,3c1.5,0.5,3.1-0.1,4.1-1.3
		c0.4-0.9,0.6-1.8,0.6-2.8c0.2-5.6-0.5-11.2-2.2-16.5c-0.4-1.7-1.2-3.3-2.2-4.7c-2.7-3.3-5.5-3.8-10.7-2.1c-0.4,0.1-0.8-0.1-0.9-0.5
		c-0.1-0.4,0.1-0.8,0.5-0.9c4.9-1.6,8.8-1.8,12.3,2.5c1.1,1.5,2,3.3,2.5,5.1c1.7,5.5,2.4,11.2,2.2,17c0,1.2-0.2,2.4-0.8,3.5
		C335.7,375.8,334.1,376.6,332.4,376.6z"></path></g></svg>